M48
; DRILL file {KiCad 9.0.9-9.0.9~ubuntu24.04.1} date 2026-07-07T17:37:17-0500
; FORMAT={-:-/ absolute / metric / decimal}
; #@! TF.CreationDate,2026-07-07T17:37:17-05:00
; #@! TF.GenerationSoftware,Kicad,Pcbnew,9.0.9-9.0.9~ubuntu24.04.1
; #@! TF.FileFunction,MixedPlating,1,2
FMAT,2
METRIC
; #@! TA.AperFunction,Plated,PTH,ComponentDrill
T1C0.800
; #@! TA.AperFunction,Plated,PTH,ComponentDrill
T2C0.900
; #@! TA.AperFunction,Plated,PTH,ComponentDrill
T3C1.000
; #@! TA.AperFunction,Plated,PTH,ComponentDrill
T4C1.100
; #@! TA.AperFunction,Plated,PTH,ComponentDrill
T5C1.200
; #@! TA.AperFunction,Plated,PTH,ComponentDrill
T6C1.300
%
G90
G05
T1
X84.6Y-102.2
X84.6Y-107.2
X84.65Y-78.95
X84.65Y-83.95
X87.4Y-45.85
X87.4Y-47.85
X89.05Y-37.95
X89.05Y-39.95
X90.85Y-63.25
X90.85Y-68.25
X102.1Y-48.05
X102.12Y-92.35
X102.15Y-55.1
X102.15Y-67.8
X103.65Y-113.35
X103.65Y-126.05
X103.7Y-97.65
X103.7Y-110.35
X104.6Y-48.05
X104.66Y-92.35
X107.2Y-92.35
X107.85Y-73.1
X107.85Y-85.8
X110.1Y-105.27
X110.1Y-107.81
X110.1Y-110.35
X110.15Y-119.4
X110.15Y-121.4
X111.85Y-94.15
X113.5Y-73.1
X113.5Y-85.8
X113.85Y-94.15
X115.1Y-115.45
X115.1Y-117.45
X115.65Y-35.35
X115.65Y-48.05
X118.15Y-67.85
X118.15Y-69.85
X123.9Y-98.1
X123.9Y-110.8
X131.25Y-69.75
X131.25Y-82.45
T2
X126.85Y-115.61
X126.85Y-118.15
X126.9Y-61.0
X126.9Y-63.54
X126.9Y-87.81
X126.9Y-90.35
X127.2Y-35.51
X127.2Y-38.05
T3
X70.865Y-90.9
X70.865Y-95.98
X75.945Y-90.9
X75.945Y-95.98
T4
X84.65Y-112.02
X84.65Y-122.18
X85.25Y-55.5
X85.25Y-65.66
X90.4Y-78.9
X90.4Y-89.06
X90.85Y-52.76
X90.85Y-55.3
X90.85Y-57.84
X90.85Y-104.76
X90.85Y-107.3
X90.85Y-109.84
X91.15Y-115.77
X91.15Y-125.93
X102.0Y-37.81
X102.0Y-40.35
X102.0Y-42.89
X102.15Y-79.86
X102.15Y-82.4
X102.15Y-84.94
X109.0Y-37.85
X109.0Y-48.01
X117.2Y-99.5
X117.2Y-109.66
X118.75Y-82.37
X118.75Y-92.53
X124.9Y-71.57
X124.9Y-81.73
T5
X70.2Y-72.8
X70.2Y-80.3
X70.2Y-106.6
X70.2Y-114.1
T6
X61.2Y-88.3
X61.2Y-93.3
X61.2Y-98.3
X132.95Y-44.45
X132.95Y-49.45
X132.95Y-54.45
X133.118Y-97.7
X133.118Y-102.7
X133.118Y-107.7
T2
G00X98.925Y-118.15
M15
G01X98.925Y-117.55
M16
G05
T3
G00X91.425Y-72.35
M15
G01X90.925Y-72.35
M16
G05
G00X99.675Y-72.35
M15
G01X99.175Y-72.35
M16
G05
M30
