ISO-10303-21;
HEADER;
/* Generated by software containing ST-Developer
 * from STEP Tools, Inc. (www.steptools.com) 
 */
/* OPTION: using custom renumber hook */

FILE_DESCRIPTION(
/* description */ ('STEP AP242 Edition 2',
'CAx-IF Rec.Pracs.---Representation and Presentation of Product Manufa
cturing Information (PMI)---4.0---2014-10-13',
'CAx-IF Rec.Pracs.---3D Tessellated Geometry---0.4---2014-09-14','2;1',
'CAx-IF Rec.Pracs.---User Defined Attributes---1.5---2016-08-15'),
/* implementation_level */ '2;1');

FILE_NAME(
/* name */ 'heatsink-power_supply',
/* time_stamp */ '2026-05-20T05:05:50Z',
/* author */ (''),
/* organization */ (''),
/* preprocessor_version */ 'ST-DEVELOPER v20',
/* originating_system */ 'ONSHAPE BY PTC INC, 1.215',
/* authorisation */ '  ');

FILE_SCHEMA (('AP242_MANAGED_MODEL_BASED_3D_ENGINEERING_MIM_LF { 1 0 10303 442 3 1 4 }'));
ENDSEC;

DATA;
#10=SHAPE_REPRESENTATION_RELATIONSHIP('','',#1485,#11);
#11=ADVANCED_BREP_SHAPE_REPRESENTATION('',(#1483),#2341);
#12=CYLINDRICAL_SURFACE('',#1509,0.0015);
#13=CYLINDRICAL_SURFACE('',#1511,0.0015);
#14=CYLINDRICAL_SURFACE('',#1513,0.0015);
#15=CYLINDRICAL_SURFACE('',#1515,0.0015);
#16=CIRCLE('',#1500,0.0015);
#17=CIRCLE('',#1501,0.0015);
#18=CIRCLE('',#1502,0.0015);
#19=CIRCLE('',#1503,0.0015);
#20=CIRCLE('',#1510,0.0015);
#21=CIRCLE('',#1512,0.0015);
#22=CIRCLE('',#1514,0.0015);
#23=CIRCLE('',#1516,0.0015);
#24=ORIENTED_EDGE('',*,*,#432,.F.);
#25=ORIENTED_EDGE('',*,*,#433,.T.);
#26=ORIENTED_EDGE('',*,*,#434,.T.);
#27=ORIENTED_EDGE('',*,*,#435,.T.);
#28=ORIENTED_EDGE('',*,*,#436,.F.);
#29=ORIENTED_EDGE('',*,*,#437,.T.);
#30=ORIENTED_EDGE('',*,*,#438,.T.);
#31=ORIENTED_EDGE('',*,*,#439,.F.);
#32=ORIENTED_EDGE('',*,*,#440,.F.);
#33=ORIENTED_EDGE('',*,*,#441,.T.);
#34=ORIENTED_EDGE('',*,*,#442,.T.);
#35=ORIENTED_EDGE('',*,*,#443,.F.);
#36=ORIENTED_EDGE('',*,*,#444,.F.);
#37=ORIENTED_EDGE('',*,*,#445,.T.);
#38=ORIENTED_EDGE('',*,*,#446,.T.);
#39=ORIENTED_EDGE('',*,*,#447,.F.);
#40=ORIENTED_EDGE('',*,*,#448,.F.);
#41=ORIENTED_EDGE('',*,*,#449,.T.);
#42=ORIENTED_EDGE('',*,*,#450,.T.);
#43=ORIENTED_EDGE('',*,*,#451,.F.);
#44=ORIENTED_EDGE('',*,*,#452,.F.);
#45=ORIENTED_EDGE('',*,*,#453,.T.);
#46=ORIENTED_EDGE('',*,*,#454,.T.);
#47=ORIENTED_EDGE('',*,*,#455,.F.);
#48=ORIENTED_EDGE('',*,*,#456,.F.);
#49=ORIENTED_EDGE('',*,*,#457,.T.);
#50=ORIENTED_EDGE('',*,*,#458,.T.);
#51=ORIENTED_EDGE('',*,*,#459,.F.);
#52=ORIENTED_EDGE('',*,*,#460,.F.);
#53=ORIENTED_EDGE('',*,*,#461,.T.);
#54=ORIENTED_EDGE('',*,*,#462,.T.);
#55=ORIENTED_EDGE('',*,*,#463,.F.);
#56=ORIENTED_EDGE('',*,*,#464,.F.);
#57=ORIENTED_EDGE('',*,*,#465,.T.);
#58=ORIENTED_EDGE('',*,*,#466,.F.);
#59=ORIENTED_EDGE('',*,*,#467,.F.);
#60=ORIENTED_EDGE('',*,*,#468,.F.);
#61=ORIENTED_EDGE('',*,*,#469,.T.);
#62=ORIENTED_EDGE('',*,*,#470,.T.);
#63=ORIENTED_EDGE('',*,*,#471,.F.);
#64=ORIENTED_EDGE('',*,*,#472,.F.);
#65=ORIENTED_EDGE('',*,*,#473,.F.);
#66=ORIENTED_EDGE('',*,*,#474,.T.);
#67=ORIENTED_EDGE('',*,*,#475,.T.);
#68=ORIENTED_EDGE('',*,*,#476,.T.);
#69=ORIENTED_EDGE('',*,*,#477,.T.);
#70=ORIENTED_EDGE('',*,*,#478,.F.);
#71=ORIENTED_EDGE('',*,*,#479,.F.);
#72=ORIENTED_EDGE('',*,*,#480,.F.);
#73=ORIENTED_EDGE('',*,*,#435,.F.);
#74=ORIENTED_EDGE('',*,*,#481,.T.);
#75=ORIENTED_EDGE('',*,*,#482,.T.);
#76=ORIENTED_EDGE('',*,*,#483,.T.);
#77=ORIENTED_EDGE('',*,*,#484,.T.);
#78=ORIENTED_EDGE('',*,*,#437,.F.);
#79=ORIENTED_EDGE('',*,*,#485,.T.);
#80=ORIENTED_EDGE('',*,*,#486,.T.);
#81=ORIENTED_EDGE('',*,*,#432,.T.);
#82=ORIENTED_EDGE('',*,*,#480,.T.);
#83=ORIENTED_EDGE('',*,*,#487,.T.);
#84=ORIENTED_EDGE('',*,*,#488,.T.);
#85=ORIENTED_EDGE('',*,*,#489,.F.);
#86=ORIENTED_EDGE('',*,*,#478,.T.);
#87=ORIENTED_EDGE('',*,*,#490,.F.);
#88=ORIENTED_EDGE('',*,*,#491,.F.);
#89=ORIENTED_EDGE('',*,*,#492,.T.);
#90=ORIENTED_EDGE('',*,*,#493,.T.);
#91=ORIENTED_EDGE('',*,*,#494,.F.);
#92=ORIENTED_EDGE('',*,*,#495,.F.);
#93=ORIENTED_EDGE('',*,*,#496,.F.);
#94=ORIENTED_EDGE('',*,*,#497,.F.);
#95=ORIENTED_EDGE('',*,*,#498,.F.);
#96=ORIENTED_EDGE('',*,*,#465,.F.);
#97=ORIENTED_EDGE('',*,*,#499,.T.);
#98=ORIENTED_EDGE('',*,*,#500,.T.);
#99=ORIENTED_EDGE('',*,*,#501,.F.);
#100=ORIENTED_EDGE('',*,*,#461,.F.);
#101=ORIENTED_EDGE('',*,*,#502,.T.);
#102=ORIENTED_EDGE('',*,*,#503,.T.);
#103=ORIENTED_EDGE('',*,*,#504,.F.);
#104=ORIENTED_EDGE('',*,*,#457,.F.);
#105=ORIENTED_EDGE('',*,*,#505,.T.);
#106=ORIENTED_EDGE('',*,*,#506,.T.);
#107=ORIENTED_EDGE('',*,*,#507,.F.);
#108=ORIENTED_EDGE('',*,*,#453,.F.);
#109=ORIENTED_EDGE('',*,*,#508,.T.);
#110=ORIENTED_EDGE('',*,*,#509,.T.);
#111=ORIENTED_EDGE('',*,*,#510,.F.);
#112=ORIENTED_EDGE('',*,*,#449,.F.);
#113=ORIENTED_EDGE('',*,*,#511,.T.);
#114=ORIENTED_EDGE('',*,*,#512,.T.);
#115=ORIENTED_EDGE('',*,*,#513,.F.);
#116=ORIENTED_EDGE('',*,*,#445,.F.);
#117=ORIENTED_EDGE('',*,*,#514,.T.);
#118=ORIENTED_EDGE('',*,*,#515,.T.);
#119=ORIENTED_EDGE('',*,*,#516,.F.);
#120=ORIENTED_EDGE('',*,*,#441,.F.);
#121=ORIENTED_EDGE('',*,*,#517,.T.);
#122=ORIENTED_EDGE('',*,*,#518,.T.);
#123=ORIENTED_EDGE('',*,*,#519,.F.);
#124=ORIENTED_EDGE('',*,*,#497,.T.);
#125=ORIENTED_EDGE('',*,*,#520,.F.);
#126=ORIENTED_EDGE('',*,*,#521,.F.);
#127=ORIENTED_EDGE('',*,*,#522,.T.);
#128=ORIENTED_EDGE('',*,*,#496,.T.);
#129=ORIENTED_EDGE('',*,*,#523,.F.);
#130=ORIENTED_EDGE('',*,*,#524,.F.);
#131=ORIENTED_EDGE('',*,*,#520,.T.);
#132=ORIENTED_EDGE('',*,*,#495,.T.);
#133=ORIENTED_EDGE('',*,*,#525,.F.);
#134=ORIENTED_EDGE('',*,*,#526,.F.);
#135=ORIENTED_EDGE('',*,*,#523,.T.);
#136=ORIENTED_EDGE('',*,*,#494,.T.);
#137=ORIENTED_EDGE('',*,*,#527,.F.);
#138=ORIENTED_EDGE('',*,*,#528,.F.);
#139=ORIENTED_EDGE('',*,*,#525,.T.);
#140=ORIENTED_EDGE('',*,*,#529,.F.);
#141=ORIENTED_EDGE('',*,*,#530,.T.);
#142=ORIENTED_EDGE('',*,*,#527,.T.);
#143=ORIENTED_EDGE('',*,*,#493,.F.);
#144=ORIENTED_EDGE('',*,*,#531,.T.);
#145=ORIENTED_EDGE('',*,*,#481,.F.);
#146=ORIENTED_EDGE('',*,*,#532,.T.);
#147=ORIENTED_EDGE('',*,*,#482,.F.);
#148=ORIENTED_EDGE('',*,*,#533,.T.);
#149=ORIENTED_EDGE('',*,*,#483,.F.);
#150=ORIENTED_EDGE('',*,*,#534,.T.);
#151=ORIENTED_EDGE('',*,*,#484,.F.);
#152=ORIENTED_EDGE('',*,*,#498,.T.);
#153=ORIENTED_EDGE('',*,*,#522,.F.);
#154=ORIENTED_EDGE('',*,*,#535,.F.);
#155=ORIENTED_EDGE('',*,*,#466,.T.);
#156=ORIENTED_EDGE('',*,*,#536,.F.);
#157=ORIENTED_EDGE('',*,*,#439,.T.);
#158=ORIENTED_EDGE('',*,*,#537,.T.);
#159=ORIENTED_EDGE('',*,*,#538,.F.);
#160=ORIENTED_EDGE('',*,*,#539,.F.);
#161=ORIENTED_EDGE('',*,*,#443,.T.);
#162=ORIENTED_EDGE('',*,*,#540,.T.);
#163=ORIENTED_EDGE('',*,*,#541,.F.);
#164=ORIENTED_EDGE('',*,*,#542,.F.);
#165=ORIENTED_EDGE('',*,*,#447,.T.);
#166=ORIENTED_EDGE('',*,*,#543,.T.);
#167=ORIENTED_EDGE('',*,*,#544,.F.);
#168=ORIENTED_EDGE('',*,*,#545,.F.);
#169=ORIENTED_EDGE('',*,*,#451,.T.);
#170=ORIENTED_EDGE('',*,*,#546,.T.);
#171=ORIENTED_EDGE('',*,*,#547,.F.);
#172=ORIENTED_EDGE('',*,*,#548,.F.);
#173=ORIENTED_EDGE('',*,*,#455,.T.);
#174=ORIENTED_EDGE('',*,*,#549,.T.);
#175=ORIENTED_EDGE('',*,*,#550,.F.);
#176=ORIENTED_EDGE('',*,*,#551,.F.);
#177=ORIENTED_EDGE('',*,*,#459,.T.);
#178=ORIENTED_EDGE('',*,*,#552,.T.);
#179=ORIENTED_EDGE('',*,*,#553,.F.);
#180=ORIENTED_EDGE('',*,*,#554,.F.);
#181=ORIENTED_EDGE('',*,*,#463,.T.);
#182=ORIENTED_EDGE('',*,*,#555,.T.);
#183=ORIENTED_EDGE('',*,*,#556,.F.);
#184=ORIENTED_EDGE('',*,*,#557,.F.);
#185=ORIENTED_EDGE('',*,*,#467,.T.);
#186=ORIENTED_EDGE('',*,*,#535,.T.);
#187=ORIENTED_EDGE('',*,*,#521,.T.);
#188=ORIENTED_EDGE('',*,*,#524,.T.);
#189=ORIENTED_EDGE('',*,*,#526,.T.);
#190=ORIENTED_EDGE('',*,*,#528,.T.);
#191=ORIENTED_EDGE('',*,*,#530,.F.);
#192=ORIENTED_EDGE('',*,*,#558,.F.);
#193=ORIENTED_EDGE('',*,*,#559,.T.);
#194=ORIENTED_EDGE('',*,*,#560,.T.);
#195=ORIENTED_EDGE('',*,*,#476,.F.);
#196=ORIENTED_EDGE('',*,*,#434,.F.);
#197=ORIENTED_EDGE('',*,*,#561,.F.);
#198=ORIENTED_EDGE('',*,*,#534,.F.);
#199=ORIENTED_EDGE('',*,*,#533,.F.);
#200=ORIENTED_EDGE('',*,*,#532,.F.);
#201=ORIENTED_EDGE('',*,*,#531,.F.);
#202=ORIENTED_EDGE('',*,*,#562,.T.);
#203=ORIENTED_EDGE('',*,*,#491,.T.);
#204=ORIENTED_EDGE('',*,*,#563,.F.);
#205=ORIENTED_EDGE('',*,*,#564,.F.);
#206=ORIENTED_EDGE('',*,*,#565,.T.);
#207=ORIENTED_EDGE('',*,*,#566,.T.);
#208=ORIENTED_EDGE('',*,*,#567,.F.);
#209=ORIENTED_EDGE('',*,*,#558,.T.);
#210=ORIENTED_EDGE('',*,*,#529,.T.);
#211=ORIENTED_EDGE('',*,*,#492,.F.);
#212=ORIENTED_EDGE('',*,*,#562,.F.);
#213=ORIENTED_EDGE('',*,*,#568,.F.);
#214=ORIENTED_EDGE('',*,*,#569,.T.);
#215=ORIENTED_EDGE('',*,*,#570,.F.);
#216=ORIENTED_EDGE('',*,*,#571,.T.);
#217=ORIENTED_EDGE('',*,*,#572,.T.);
#218=ORIENTED_EDGE('',*,*,#473,.T.);
#219=ORIENTED_EDGE('',*,*,#573,.F.);
#220=ORIENTED_EDGE('',*,*,#574,.T.);
#221=ORIENTED_EDGE('',*,*,#575,.T.);
#222=ORIENTED_EDGE('',*,*,#468,.T.);
#223=ORIENTED_EDGE('',*,*,#564,.T.);
#224=ORIENTED_EDGE('',*,*,#576,.F.);
#225=ORIENTED_EDGE('',*,*,#577,.F.);
#226=ORIENTED_EDGE('',*,*,#568,.T.);
#227=ORIENTED_EDGE('',*,*,#578,.T.);
#228=ORIENTED_EDGE('',*,*,#579,.T.);
#229=ORIENTED_EDGE('',*,*,#580,.F.);
#230=ORIENTED_EDGE('',*,*,#470,.F.);
#231=ORIENTED_EDGE('',*,*,#581,.F.);
#232=ORIENTED_EDGE('',*,*,#582,.F.);
#233=ORIENTED_EDGE('',*,*,#583,.T.);
#234=ORIENTED_EDGE('',*,*,#475,.F.);
#235=ORIENTED_EDGE('',*,*,#584,.F.);
#236=ORIENTED_EDGE('',*,*,#585,.F.);
#237=ORIENTED_EDGE('',*,*,#586,.T.);
#238=ORIENTED_EDGE('',*,*,#587,.F.);
#239=ORIENTED_EDGE('',*,*,#576,.T.);
#240=ORIENTED_EDGE('',*,*,#563,.T.);
#241=ORIENTED_EDGE('',*,*,#490,.T.);
#242=ORIENTED_EDGE('',*,*,#477,.F.);
#243=ORIENTED_EDGE('',*,*,#560,.F.);
#244=ORIENTED_EDGE('',*,*,#580,.T.);
#245=ORIENTED_EDGE('',*,*,#588,.T.);
#246=ORIENTED_EDGE('',*,*,#565,.F.);
#247=ORIENTED_EDGE('',*,*,#471,.T.);
#248=ORIENTED_EDGE('',*,*,#589,.F.);
#249=ORIENTED_EDGE('',*,*,#569,.F.);
#250=ORIENTED_EDGE('',*,*,#577,.T.);
#251=ORIENTED_EDGE('',*,*,#587,.T.);
#252=ORIENTED_EDGE('',*,*,#567,.T.);
#253=ORIENTED_EDGE('',*,*,#590,.T.);
#254=ORIENTED_EDGE('',*,*,#578,.F.);
#255=ORIENTED_EDGE('',*,*,#559,.F.);
#256=ORIENTED_EDGE('',*,*,#591,.T.);
#257=ORIENTED_EDGE('',*,*,#479,.T.);
#258=ORIENTED_EDGE('',*,*,#592,.F.);
#259=ORIENTED_EDGE('',*,*,#593,.T.);
#260=ORIENTED_EDGE('',*,*,#594,.T.);
#261=ORIENTED_EDGE('',*,*,#595,.F.);
#262=ORIENTED_EDGE('',*,*,#596,.F.);
#263=ORIENTED_EDGE('',*,*,#487,.F.);
#264=ORIENTED_EDGE('',*,*,#591,.F.);
#265=ORIENTED_EDGE('',*,*,#597,.T.);
#266=ORIENTED_EDGE('',*,*,#598,.T.);
#267=ORIENTED_EDGE('',*,*,#599,.T.);
#268=ORIENTED_EDGE('',*,*,#600,.T.);
#269=ORIENTED_EDGE('',*,*,#601,.T.);
#270=ORIENTED_EDGE('',*,*,#602,.F.);
#271=ORIENTED_EDGE('',*,*,#603,.T.);
#272=ORIENTED_EDGE('',*,*,#592,.T.);
#273=ORIENTED_EDGE('',*,*,#489,.T.);
#274=ORIENTED_EDGE('',*,*,#604,.F.);
#275=ORIENTED_EDGE('',*,*,#605,.T.);
#276=ORIENTED_EDGE('',*,*,#606,.F.);
#277=ORIENTED_EDGE('',*,*,#607,.F.);
#278=ORIENTED_EDGE('',*,*,#602,.T.);
#279=ORIENTED_EDGE('',*,*,#608,.F.);
#280=ORIENTED_EDGE('',*,*,#600,.F.);
#281=ORIENTED_EDGE('',*,*,#609,.F.);
#282=ORIENTED_EDGE('',*,*,#610,.F.);
#283=ORIENTED_EDGE('',*,*,#605,.F.);
#284=ORIENTED_EDGE('',*,*,#611,.F.);
#285=ORIENTED_EDGE('',*,*,#612,.F.);
#286=ORIENTED_EDGE('',*,*,#597,.F.);
#287=ORIENTED_EDGE('',*,*,#595,.T.);
#288=ORIENTED_EDGE('',*,*,#596,.T.);
#289=ORIENTED_EDGE('',*,*,#608,.T.);
#290=ORIENTED_EDGE('',*,*,#601,.F.);
#291=ORIENTED_EDGE('',*,*,#488,.F.);
#292=ORIENTED_EDGE('',*,*,#610,.T.);
#293=ORIENTED_EDGE('',*,*,#594,.F.);
#294=ORIENTED_EDGE('',*,*,#613,.F.);
#295=ORIENTED_EDGE('',*,*,#606,.T.);
#296=ORIENTED_EDGE('',*,*,#603,.F.);
#297=ORIENTED_EDGE('',*,*,#607,.T.);
#298=ORIENTED_EDGE('',*,*,#613,.T.);
#299=ORIENTED_EDGE('',*,*,#593,.F.);
#300=ORIENTED_EDGE('',*,*,#474,.F.);
#301=ORIENTED_EDGE('',*,*,#572,.F.);
#302=ORIENTED_EDGE('',*,*,#614,.T.);
#303=ORIENTED_EDGE('',*,*,#584,.T.);
#304=ORIENTED_EDGE('',*,*,#589,.T.);
#305=ORIENTED_EDGE('',*,*,#586,.F.);
#306=ORIENTED_EDGE('',*,*,#615,.F.);
#307=ORIENTED_EDGE('',*,*,#570,.T.);
#308=ORIENTED_EDGE('',*,*,#614,.F.);
#309=ORIENTED_EDGE('',*,*,#571,.F.);
#310=ORIENTED_EDGE('',*,*,#615,.T.);
#311=ORIENTED_EDGE('',*,*,#585,.T.);
#312=ORIENTED_EDGE('',*,*,#472,.T.);
#313=ORIENTED_EDGE('',*,*,#583,.F.);
#314=ORIENTED_EDGE('',*,*,#616,.F.);
#315=ORIENTED_EDGE('',*,*,#573,.T.);
#316=ORIENTED_EDGE('',*,*,#469,.F.);
#317=ORIENTED_EDGE('',*,*,#575,.F.);
#318=ORIENTED_EDGE('',*,*,#617,.T.);
#319=ORIENTED_EDGE('',*,*,#581,.T.);
#320=ORIENTED_EDGE('',*,*,#574,.F.);
#321=ORIENTED_EDGE('',*,*,#616,.T.);
#322=ORIENTED_EDGE('',*,*,#582,.T.);
#323=ORIENTED_EDGE('',*,*,#617,.F.);
#324=ORIENTED_EDGE('',*,*,#604,.T.);
#325=ORIENTED_EDGE('',*,*,#618,.F.);
#326=ORIENTED_EDGE('',*,*,#619,.F.);
#327=ORIENTED_EDGE('',*,*,#611,.T.);
#328=ORIENTED_EDGE('',*,*,#609,.T.);
#329=ORIENTED_EDGE('',*,*,#599,.F.);
#330=ORIENTED_EDGE('',*,*,#620,.F.);
#331=ORIENTED_EDGE('',*,*,#618,.T.);
#332=ORIENTED_EDGE('',*,*,#619,.T.);
#333=ORIENTED_EDGE('',*,*,#620,.T.);
#334=ORIENTED_EDGE('',*,*,#598,.F.);
#335=ORIENTED_EDGE('',*,*,#612,.T.);
#336=ORIENTED_EDGE('',*,*,#566,.F.);
#337=ORIENTED_EDGE('',*,*,#588,.F.);
#338=ORIENTED_EDGE('',*,*,#579,.F.);
#339=ORIENTED_EDGE('',*,*,#590,.F.);
#340=ORIENTED_EDGE('',*,*,#464,.T.);
#341=ORIENTED_EDGE('',*,*,#557,.T.);
#342=ORIENTED_EDGE('',*,*,#621,.F.);
#343=ORIENTED_EDGE('',*,*,#499,.F.);
#344=ORIENTED_EDGE('',*,*,#501,.T.);
#345=ORIENTED_EDGE('',*,*,#622,.T.);
#346=ORIENTED_EDGE('',*,*,#555,.F.);
#347=ORIENTED_EDGE('',*,*,#462,.F.);
#348=ORIENTED_EDGE('',*,*,#621,.T.);
#349=ORIENTED_EDGE('',*,*,#556,.T.);
#350=ORIENTED_EDGE('',*,*,#622,.F.);
#351=ORIENTED_EDGE('',*,*,#500,.F.);
#352=ORIENTED_EDGE('',*,*,#460,.T.);
#353=ORIENTED_EDGE('',*,*,#554,.T.);
#354=ORIENTED_EDGE('',*,*,#623,.F.);
#355=ORIENTED_EDGE('',*,*,#502,.F.);
#356=ORIENTED_EDGE('',*,*,#504,.T.);
#357=ORIENTED_EDGE('',*,*,#624,.T.);
#358=ORIENTED_EDGE('',*,*,#552,.F.);
#359=ORIENTED_EDGE('',*,*,#458,.F.);
#360=ORIENTED_EDGE('',*,*,#623,.T.);
#361=ORIENTED_EDGE('',*,*,#553,.T.);
#362=ORIENTED_EDGE('',*,*,#624,.F.);
#363=ORIENTED_EDGE('',*,*,#503,.F.);
#364=ORIENTED_EDGE('',*,*,#456,.T.);
#365=ORIENTED_EDGE('',*,*,#551,.T.);
#366=ORIENTED_EDGE('',*,*,#625,.F.);
#367=ORIENTED_EDGE('',*,*,#505,.F.);
#368=ORIENTED_EDGE('',*,*,#507,.T.);
#369=ORIENTED_EDGE('',*,*,#626,.T.);
#370=ORIENTED_EDGE('',*,*,#549,.F.);
#371=ORIENTED_EDGE('',*,*,#454,.F.);
#372=ORIENTED_EDGE('',*,*,#625,.T.);
#373=ORIENTED_EDGE('',*,*,#550,.T.);
#374=ORIENTED_EDGE('',*,*,#626,.F.);
#375=ORIENTED_EDGE('',*,*,#506,.F.);
#376=ORIENTED_EDGE('',*,*,#452,.T.);
#377=ORIENTED_EDGE('',*,*,#548,.T.);
#378=ORIENTED_EDGE('',*,*,#627,.F.);
#379=ORIENTED_EDGE('',*,*,#508,.F.);
#380=ORIENTED_EDGE('',*,*,#510,.T.);
#381=ORIENTED_EDGE('',*,*,#628,.T.);
#382=ORIENTED_EDGE('',*,*,#546,.F.);
#383=ORIENTED_EDGE('',*,*,#450,.F.);
#384=ORIENTED_EDGE('',*,*,#627,.T.);
#385=ORIENTED_EDGE('',*,*,#547,.T.);
#386=ORIENTED_EDGE('',*,*,#628,.F.);
#387=ORIENTED_EDGE('',*,*,#509,.F.);
#388=ORIENTED_EDGE('',*,*,#448,.T.);
#389=ORIENTED_EDGE('',*,*,#545,.T.);
#390=ORIENTED_EDGE('',*,*,#629,.F.);
#391=ORIENTED_EDGE('',*,*,#511,.F.);
#392=ORIENTED_EDGE('',*,*,#513,.T.);
#393=ORIENTED_EDGE('',*,*,#630,.T.);
#394=ORIENTED_EDGE('',*,*,#543,.F.);
#395=ORIENTED_EDGE('',*,*,#446,.F.);
#396=ORIENTED_EDGE('',*,*,#629,.T.);
#397=ORIENTED_EDGE('',*,*,#544,.T.);
#398=ORIENTED_EDGE('',*,*,#630,.F.);
#399=ORIENTED_EDGE('',*,*,#512,.F.);
#400=ORIENTED_EDGE('',*,*,#444,.T.);
#401=ORIENTED_EDGE('',*,*,#542,.T.);
#402=ORIENTED_EDGE('',*,*,#631,.F.);
#403=ORIENTED_EDGE('',*,*,#514,.F.);
#404=ORIENTED_EDGE('',*,*,#516,.T.);
#405=ORIENTED_EDGE('',*,*,#632,.T.);
#406=ORIENTED_EDGE('',*,*,#540,.F.);
#407=ORIENTED_EDGE('',*,*,#442,.F.);
#408=ORIENTED_EDGE('',*,*,#631,.T.);
#409=ORIENTED_EDGE('',*,*,#541,.T.);
#410=ORIENTED_EDGE('',*,*,#632,.F.);
#411=ORIENTED_EDGE('',*,*,#515,.F.);
#412=ORIENTED_EDGE('',*,*,#440,.T.);
#413=ORIENTED_EDGE('',*,*,#539,.T.);
#414=ORIENTED_EDGE('',*,*,#633,.F.);
#415=ORIENTED_EDGE('',*,*,#517,.F.);
#416=ORIENTED_EDGE('',*,*,#519,.T.);
#417=ORIENTED_EDGE('',*,*,#634,.T.);
#418=ORIENTED_EDGE('',*,*,#537,.F.);
#419=ORIENTED_EDGE('',*,*,#438,.F.);
#420=ORIENTED_EDGE('',*,*,#633,.T.);
#421=ORIENTED_EDGE('',*,*,#538,.T.);
#422=ORIENTED_EDGE('',*,*,#634,.F.);
#423=ORIENTED_EDGE('',*,*,#518,.F.);
#424=ORIENTED_EDGE('',*,*,#436,.T.);
#425=ORIENTED_EDGE('',*,*,#536,.T.);
#426=ORIENTED_EDGE('',*,*,#635,.F.);
#427=ORIENTED_EDGE('',*,*,#485,.F.);
#428=ORIENTED_EDGE('',*,*,#635,.T.);
#429=ORIENTED_EDGE('',*,*,#561,.T.);
#430=ORIENTED_EDGE('',*,*,#433,.F.);
#431=ORIENTED_EDGE('',*,*,#486,.F.);
#432=EDGE_CURVE('',#636,#637,#774,.T.);
#433=EDGE_CURVE('',#636,#638,#775,.T.);
#434=EDGE_CURVE('',#638,#639,#776,.T.);
#435=EDGE_CURVE('',#639,#637,#777,.T.);
#436=EDGE_CURVE('',#640,#641,#778,.T.);
#437=EDGE_CURVE('',#640,#642,#779,.T.);
#438=EDGE_CURVE('',#642,#643,#780,.T.);
#439=EDGE_CURVE('',#641,#643,#781,.T.);
#440=EDGE_CURVE('',#644,#645,#782,.T.);
#441=EDGE_CURVE('',#644,#646,#783,.T.);
#442=EDGE_CURVE('',#646,#647,#784,.T.);
#443=EDGE_CURVE('',#645,#647,#785,.T.);
#444=EDGE_CURVE('',#648,#649,#786,.T.);
#445=EDGE_CURVE('',#648,#650,#787,.T.);
#446=EDGE_CURVE('',#650,#651,#788,.T.);
#447=EDGE_CURVE('',#649,#651,#789,.T.);
#448=EDGE_CURVE('',#652,#653,#790,.T.);
#449=EDGE_CURVE('',#652,#654,#791,.T.);
#450=EDGE_CURVE('',#654,#655,#792,.T.);
#451=EDGE_CURVE('',#653,#655,#793,.T.);
#452=EDGE_CURVE('',#656,#657,#794,.T.);
#453=EDGE_CURVE('',#656,#658,#795,.T.);
#454=EDGE_CURVE('',#658,#659,#796,.T.);
#455=EDGE_CURVE('',#657,#659,#797,.T.);
#456=EDGE_CURVE('',#660,#661,#798,.T.);
#457=EDGE_CURVE('',#660,#662,#799,.T.);
#458=EDGE_CURVE('',#662,#663,#800,.T.);
#459=EDGE_CURVE('',#661,#663,#801,.T.);
#460=EDGE_CURVE('',#664,#665,#802,.T.);
#461=EDGE_CURVE('',#664,#666,#803,.T.);
#462=EDGE_CURVE('',#666,#667,#804,.T.);
#463=EDGE_CURVE('',#665,#667,#805,.T.);
#464=EDGE_CURVE('',#668,#669,#806,.T.);
#465=EDGE_CURVE('',#668,#670,#807,.T.);
#466=EDGE_CURVE('',#671,#670,#808,.T.);
#467=EDGE_CURVE('',#669,#671,#809,.T.);
#468=EDGE_CURVE('',#672,#673,#810,.T.);
#469=EDGE_CURVE('',#672,#674,#811,.T.);
#470=EDGE_CURVE('',#674,#675,#812,.T.);
#471=EDGE_CURVE('',#673,#675,#813,.T.);
#472=EDGE_CURVE('',#676,#677,#814,.T.);
#473=EDGE_CURVE('',#678,#676,#815,.T.);
#474=EDGE_CURVE('',#678,#679,#816,.T.);
#475=EDGE_CURVE('',#679,#677,#817,.T.);
#476=EDGE_CURVE('',#639,#680,#818,.T.);
#477=EDGE_CURVE('',#680,#681,#819,.T.);
#478=EDGE_CURVE('',#682,#681,#820,.T.);
#479=EDGE_CURVE('',#683,#682,#821,.T.);
#480=EDGE_CURVE('',#637,#683,#822,.T.);
#481=EDGE_CURVE('',#684,#684,#16,.T.);
#482=EDGE_CURVE('',#685,#685,#17,.T.);
#483=EDGE_CURVE('',#686,#686,#18,.T.);
#484=EDGE_CURVE('',#687,#687,#19,.T.);
#485=EDGE_CURVE('',#640,#688,#823,.T.);
#486=EDGE_CURVE('',#688,#636,#824,.T.);
#487=EDGE_CURVE('',#683,#689,#825,.T.);
#488=EDGE_CURVE('',#689,#690,#826,.T.);
#489=EDGE_CURVE('',#682,#690,#827,.T.);
#490=EDGE_CURVE('',#691,#681,#828,.T.);
#491=EDGE_CURVE('',#692,#691,#829,.T.);
#492=EDGE_CURVE('',#692,#693,#830,.T.);
#493=EDGE_CURVE('',#693,#694,#831,.T.);
#494=EDGE_CURVE('',#695,#694,#832,.T.);
#495=EDGE_CURVE('',#696,#695,#833,.T.);
#496=EDGE_CURVE('',#697,#696,#834,.T.);
#497=EDGE_CURVE('',#698,#697,#835,.T.);
#498=EDGE_CURVE('',#670,#698,#836,.T.);
#499=EDGE_CURVE('',#668,#699,#837,.T.);
#500=EDGE_CURVE('',#699,#700,#838,.T.);
#501=EDGE_CURVE('',#666,#700,#839,.T.);
#502=EDGE_CURVE('',#664,#701,#840,.T.);
#503=EDGE_CURVE('',#701,#702,#841,.T.);
#504=EDGE_CURVE('',#662,#702,#842,.T.);
#505=EDGE_CURVE('',#660,#703,#843,.T.);
#506=EDGE_CURVE('',#703,#704,#844,.T.);
#507=EDGE_CURVE('',#658,#704,#845,.T.);
#508=EDGE_CURVE('',#656,#705,#846,.T.);
#509=EDGE_CURVE('',#705,#706,#847,.T.);
#510=EDGE_CURVE('',#654,#706,#848,.T.);
#511=EDGE_CURVE('',#652,#707,#849,.T.);
#512=EDGE_CURVE('',#707,#708,#850,.T.);
#513=EDGE_CURVE('',#650,#708,#851,.T.);
#514=EDGE_CURVE('',#648,#709,#852,.T.);
#515=EDGE_CURVE('',#709,#710,#853,.T.);
#516=EDGE_CURVE('',#646,#710,#854,.T.);
#517=EDGE_CURVE('',#644,#711,#855,.T.);
#518=EDGE_CURVE('',#711,#712,#856,.T.);
#519=EDGE_CURVE('',#642,#712,#857,.T.);
#520=EDGE_CURVE('',#713,#697,#858,.T.);
#521=EDGE_CURVE('',#714,#713,#859,.T.);
#522=EDGE_CURVE('',#714,#698,#860,.T.);
#523=EDGE_CURVE('',#715,#696,#861,.T.);
#524=EDGE_CURVE('',#713,#715,#862,.T.);
#525=EDGE_CURVE('',#716,#695,#863,.T.);
#526=EDGE_CURVE('',#715,#716,#864,.T.);
#527=EDGE_CURVE('',#717,#694,#865,.T.);
#528=EDGE_CURVE('',#716,#717,#866,.T.);
#529=EDGE_CURVE('',#718,#693,#867,.T.);
#530=EDGE_CURVE('',#718,#717,#868,.T.);
#531=EDGE_CURVE('',#719,#719,#20,.T.);
#532=EDGE_CURVE('',#720,#720,#21,.T.);
#533=EDGE_CURVE('',#721,#721,#22,.T.);
#534=EDGE_CURVE('',#722,#722,#23,.T.);
#535=EDGE_CURVE('',#671,#714,#869,.T.);
#536=EDGE_CURVE('',#641,#723,#870,.T.);
#537=EDGE_CURVE('',#643,#724,#871,.T.);
#538=EDGE_CURVE('',#725,#724,#872,.T.);
#539=EDGE_CURVE('',#645,#725,#873,.T.);
#540=EDGE_CURVE('',#647,#726,#874,.T.);
#541=EDGE_CURVE('',#727,#726,#875,.T.);
#542=EDGE_CURVE('',#649,#727,#876,.T.);
#543=EDGE_CURVE('',#651,#728,#877,.T.);
#544=EDGE_CURVE('',#729,#728,#878,.T.);
#545=EDGE_CURVE('',#653,#729,#879,.T.);
#546=EDGE_CURVE('',#655,#730,#880,.T.);
#547=EDGE_CURVE('',#731,#730,#881,.T.);
#548=EDGE_CURVE('',#657,#731,#882,.T.);
#549=EDGE_CURVE('',#659,#732,#883,.T.);
#550=EDGE_CURVE('',#733,#732,#884,.T.);
#551=EDGE_CURVE('',#661,#733,#885,.T.);
#552=EDGE_CURVE('',#663,#734,#886,.T.);
#553=EDGE_CURVE('',#735,#734,#887,.T.);
#554=EDGE_CURVE('',#665,#735,#888,.T.);
#555=EDGE_CURVE('',#667,#736,#889,.T.);
#556=EDGE_CURVE('',#737,#736,#890,.T.);
#557=EDGE_CURVE('',#669,#737,#891,.T.);
#558=EDGE_CURVE('',#738,#718,#892,.T.);
#559=EDGE_CURVE('',#738,#739,#893,.T.);
#560=EDGE_CURVE('',#739,#680,#894,.T.);
#561=EDGE_CURVE('',#723,#638,#895,.T.);
#562=EDGE_CURVE('',#740,#692,#896,.T.);
#563=EDGE_CURVE('',#741,#691,#897,.T.);
#564=EDGE_CURVE('',#740,#741,#898,.T.);
#565=EDGE_CURVE('',#673,#742,#899,.T.);
#566=EDGE_CURVE('',#742,#743,#900,.T.);
#567=EDGE_CURVE('',#738,#743,#901,.T.);
#568=EDGE_CURVE('',#744,#740,#902,.T.);
#569=EDGE_CURVE('',#744,#745,#903,.T.);
#570=EDGE_CURVE('',#746,#745,#904,.T.);
#571=EDGE_CURVE('',#746,#747,#905,.T.);
#572=EDGE_CURVE('',#747,#678,#906,.T.);
#573=EDGE_CURVE('',#748,#676,#907,.T.);
#574=EDGE_CURVE('',#748,#749,#908,.T.);
#575=EDGE_CURVE('',#749,#672,#909,.T.);
#576=EDGE_CURVE('',#750,#741,#910,.T.);
#577=EDGE_CURVE('',#744,#750,#911,.T.);
#578=EDGE_CURVE('',#739,#751,#912,.T.);
#579=EDGE_CURVE('',#751,#752,#913,.T.);
#580=EDGE_CURVE('',#675,#752,#914,.T.);
#581=EDGE_CURVE('',#753,#674,#915,.T.);
#582=EDGE_CURVE('',#754,#753,#916,.T.);
#583=EDGE_CURVE('',#754,#677,#917,.T.);
#584=EDGE_CURVE('',#755,#679,#918,.T.);
#585=EDGE_CURVE('',#756,#755,#919,.T.);
#586=EDGE_CURVE('',#756,#757,#920,.T.);
#587=EDGE_CURVE('',#750,#757,#921,.T.);
#588=EDGE_CURVE('',#752,#742,#922,.T.);
#589=EDGE_CURVE('',#745,#757,#923,.T.);
#590=EDGE_CURVE('',#743,#751,#924,.T.);
#591=EDGE_CURVE('',#758,#683,#925,.T.);
#592=EDGE_CURVE('',#759,#682,#926,.T.);
#593=EDGE_CURVE('',#759,#760,#927,.T.);
#594=EDGE_CURVE('',#760,#761,#928,.T.);
#595=EDGE_CURVE('',#758,#761,#929,.T.);
#596=EDGE_CURVE('',#689,#762,#930,.T.);
#597=EDGE_CURVE('',#758,#763,#931,.T.);
#598=EDGE_CURVE('',#763,#764,#932,.T.);
#599=EDGE_CURVE('',#764,#765,#933,.T.);
#600=EDGE_CURVE('',#765,#762,#934,.T.);
#601=EDGE_CURVE('',#690,#766,#935,.T.);
#602=EDGE_CURVE('',#767,#766,#936,.T.);
#603=EDGE_CURVE('',#767,#759,#937,.T.);
#604=EDGE_CURVE('',#768,#769,#938,.T.);
#605=EDGE_CURVE('',#768,#770,#939,.T.);
#606=EDGE_CURVE('',#771,#770,#940,.T.);
#607=EDGE_CURVE('',#767,#771,#941,.T.);
#608=EDGE_CURVE('',#762,#766,#942,.T.);
#609=EDGE_CURVE('',#769,#765,#943,.T.);
#610=EDGE_CURVE('',#770,#761,#944,.T.);
#611=EDGE_CURVE('',#772,#768,#945,.T.);
#612=EDGE_CURVE('',#763,#772,#946,.T.);
#613=EDGE_CURVE('',#771,#760,#947,.T.);
#614=EDGE_CURVE('',#747,#755,#948,.T.);
#615=EDGE_CURVE('',#746,#756,#949,.T.);
#616=EDGE_CURVE('',#748,#754,#950,.T.);
#617=EDGE_CURVE('',#749,#753,#951,.T.);
#618=EDGE_CURVE('',#773,#769,#952,.T.);
#619=EDGE_CURVE('',#772,#773,#953,.T.);
#620=EDGE_CURVE('',#773,#764,#954,.T.);
#621=EDGE_CURVE('',#699,#737,#955,.T.);
#622=EDGE_CURVE('',#700,#736,#956,.T.);
#623=EDGE_CURVE('',#701,#735,#957,.T.);
#624=EDGE_CURVE('',#702,#734,#958,.T.);
#625=EDGE_CURVE('',#703,#733,#959,.T.);
#626=EDGE_CURVE('',#704,#732,#960,.T.);
#627=EDGE_CURVE('',#705,#731,#961,.T.);
#628=EDGE_CURVE('',#706,#730,#962,.T.);
#629=EDGE_CURVE('',#707,#729,#963,.T.);
#630=EDGE_CURVE('',#708,#728,#964,.T.);
#631=EDGE_CURVE('',#709,#727,#965,.T.);
#632=EDGE_CURVE('',#710,#726,#966,.T.);
#633=EDGE_CURVE('',#711,#725,#967,.T.);
#634=EDGE_CURVE('',#712,#724,#968,.T.);
#635=EDGE_CURVE('',#688,#723,#969,.T.);
#636=VERTEX_POINT('',#1928);
#637=VERTEX_POINT('',#1929);
#638=VERTEX_POINT('',#1931);
#639=VERTEX_POINT('',#1933);
#640=VERTEX_POINT('',#1937);
#641=VERTEX_POINT('',#1938);
#642=VERTEX_POINT('',#1940);
#643=VERTEX_POINT('',#1942);
#644=VERTEX_POINT('',#1946);
#645=VERTEX_POINT('',#1947);
#646=VERTEX_POINT('',#1949);
#647=VERTEX_POINT('',#1951);
#648=VERTEX_POINT('',#1955);
#649=VERTEX_POINT('',#1956);
#650=VERTEX_POINT('',#1958);
#651=VERTEX_POINT('',#1960);
#652=VERTEX_POINT('',#1964);
#653=VERTEX_POINT('',#1965);
#654=VERTEX_POINT('',#1967);
#655=VERTEX_POINT('',#1969);
#656=VERTEX_POINT('',#1973);
#657=VERTEX_POINT('',#1974);
#658=VERTEX_POINT('',#1976);
#659=VERTEX_POINT('',#1978);
#660=VERTEX_POINT('',#1982);
#661=VERTEX_POINT('',#1983);
#662=VERTEX_POINT('',#1985);
#663=VERTEX_POINT('',#1987);
#664=VERTEX_POINT('',#1991);
#665=VERTEX_POINT('',#1992);
#666=VERTEX_POINT('',#1994);
#667=VERTEX_POINT('',#1996);
#668=VERTEX_POINT('',#2000);
#669=VERTEX_POINT('',#2001);
#670=VERTEX_POINT('',#2003);
#671=VERTEX_POINT('',#2005);
#672=VERTEX_POINT('',#2009);
#673=VERTEX_POINT('',#2010);
#674=VERTEX_POINT('',#2012);
#675=VERTEX_POINT('',#2014);
#676=VERTEX_POINT('',#2018);
#677=VERTEX_POINT('',#2019);
#678=VERTEX_POINT('',#2021);
#679=VERTEX_POINT('',#2023);
#680=VERTEX_POINT('',#2027);
#681=VERTEX_POINT('',#2029);
#682=VERTEX_POINT('',#2031);
#683=VERTEX_POINT('',#2033);
#684=VERTEX_POINT('',#2037);
#685=VERTEX_POINT('',#2039);
#686=VERTEX_POINT('',#2041);
#687=VERTEX_POINT('',#2043);
#688=VERTEX_POINT('',#2045);
#689=VERTEX_POINT('',#2048);
#690=VERTEX_POINT('',#2050);
#691=VERTEX_POINT('',#2053);
#692=VERTEX_POINT('',#2055);
#693=VERTEX_POINT('',#2057);
#694=VERTEX_POINT('',#2059);
#695=VERTEX_POINT('',#2061);
#696=VERTEX_POINT('',#2063);
#697=VERTEX_POINT('',#2065);
#698=VERTEX_POINT('',#2067);
#699=VERTEX_POINT('',#2070);
#700=VERTEX_POINT('',#2072);
#701=VERTEX_POINT('',#2075);
#702=VERTEX_POINT('',#2077);
#703=VERTEX_POINT('',#2080);
#704=VERTEX_POINT('',#2082);
#705=VERTEX_POINT('',#2085);
#706=VERTEX_POINT('',#2087);
#707=VERTEX_POINT('',#2090);
#708=VERTEX_POINT('',#2092);
#709=VERTEX_POINT('',#2095);
#710=VERTEX_POINT('',#2097);
#711=VERTEX_POINT('',#2100);
#712=VERTEX_POINT('',#2102);
#713=VERTEX_POINT('',#2106);
#714=VERTEX_POINT('',#2108);
#715=VERTEX_POINT('',#2112);
#716=VERTEX_POINT('',#2116);
#717=VERTEX_POINT('',#2120);
#718=VERTEX_POINT('',#2124);
#719=VERTEX_POINT('',#2128);
#720=VERTEX_POINT('',#2131);
#721=VERTEX_POINT('',#2134);
#722=VERTEX_POINT('',#2137);
#723=VERTEX_POINT('',#2142);
#724=VERTEX_POINT('',#2144);
#725=VERTEX_POINT('',#2146);
#726=VERTEX_POINT('',#2149);
#727=VERTEX_POINT('',#2151);
#728=VERTEX_POINT('',#2154);
#729=VERTEX_POINT('',#2156);
#730=VERTEX_POINT('',#2159);
#731=VERTEX_POINT('',#2161);
#732=VERTEX_POINT('',#2164);
#733=VERTEX_POINT('',#2166);
#734=VERTEX_POINT('',#2169);
#735=VERTEX_POINT('',#2171);
#736=VERTEX_POINT('',#2174);
#737=VERTEX_POINT('',#2176);
#738=VERTEX_POINT('',#2179);
#739=VERTEX_POINT('',#2181);
#740=VERTEX_POINT('',#2186);
#741=VERTEX_POINT('',#2188);
#742=VERTEX_POINT('',#2192);
#743=VERTEX_POINT('',#2194);
#744=VERTEX_POINT('',#2197);
#745=VERTEX_POINT('',#2199);
#746=VERTEX_POINT('',#2201);
#747=VERTEX_POINT('',#2203);
#748=VERTEX_POINT('',#2206);
#749=VERTEX_POINT('',#2208);
#750=VERTEX_POINT('',#2212);
#751=VERTEX_POINT('',#2216);
#752=VERTEX_POINT('',#2218);
#753=VERTEX_POINT('',#2221);
#754=VERTEX_POINT('',#2223);
#755=VERTEX_POINT('',#2226);
#756=VERTEX_POINT('',#2228);
#757=VERTEX_POINT('',#2230);
#758=VERTEX_POINT('',#2240);
#759=VERTEX_POINT('',#2242);
#760=VERTEX_POINT('',#2244);
#761=VERTEX_POINT('',#2246);
#762=VERTEX_POINT('',#2250);
#763=VERTEX_POINT('',#2252);
#764=VERTEX_POINT('',#2254);
#765=VERTEX_POINT('',#2256);
#766=VERTEX_POINT('',#2260);
#767=VERTEX_POINT('',#2262);
#768=VERTEX_POINT('',#2266);
#769=VERTEX_POINT('',#2267);
#770=VERTEX_POINT('',#2269);
#771=VERTEX_POINT('',#2271);
#772=VERTEX_POINT('',#2278);
#773=VERTEX_POINT('',#2296);
#774=LINE('',#1927,#970);
#775=LINE('',#1930,#971);
#776=LINE('',#1932,#972);
#777=LINE('',#1934,#973);
#778=LINE('',#1936,#974);
#779=LINE('',#1939,#975);
#780=LINE('',#1941,#976);
#781=LINE('',#1943,#977);
#782=LINE('',#1945,#978);
#783=LINE('',#1948,#979);
#784=LINE('',#1950,#980);
#785=LINE('',#1952,#981);
#786=LINE('',#1954,#982);
#787=LINE('',#1957,#983);
#788=LINE('',#1959,#984);
#789=LINE('',#1961,#985);
#790=LINE('',#1963,#986);
#791=LINE('',#1966,#987);
#792=LINE('',#1968,#988);
#793=LINE('',#1970,#989);
#794=LINE('',#1972,#990);
#795=LINE('',#1975,#991);
#796=LINE('',#1977,#992);
#797=LINE('',#1979,#993);
#798=LINE('',#1981,#994);
#799=LINE('',#1984,#995);
#800=LINE('',#1986,#996);
#801=LINE('',#1988,#997);
#802=LINE('',#1990,#998);
#803=LINE('',#1993,#999);
#804=LINE('',#1995,#1000);
#805=LINE('',#1997,#1001);
#806=LINE('',#1999,#1002);
#807=LINE('',#2002,#1003);
#808=LINE('',#2004,#1004);
#809=LINE('',#2006,#1005);
#810=LINE('',#2008,#1006);
#811=LINE('',#2011,#1007);
#812=LINE('',#2013,#1008);
#813=LINE('',#2015,#1009);
#814=LINE('',#2017,#1010);
#815=LINE('',#2020,#1011);
#816=LINE('',#2022,#1012);
#817=LINE('',#2024,#1013);
#818=LINE('',#2026,#1014);
#819=LINE('',#2028,#1015);
#820=LINE('',#2030,#1016);
#821=LINE('',#2032,#1017);
#822=LINE('',#2034,#1018);
#823=LINE('',#2044,#1019);
#824=LINE('',#2046,#1020);
#825=LINE('',#2047,#1021);
#826=LINE('',#2049,#1022);
#827=LINE('',#2051,#1023);
#828=LINE('',#2052,#1024);
#829=LINE('',#2054,#1025);
#830=LINE('',#2056,#1026);
#831=LINE('',#2058,#1027);
#832=LINE('',#2060,#1028);
#833=LINE('',#2062,#1029);
#834=LINE('',#2064,#1030);
#835=LINE('',#2066,#1031);
#836=LINE('',#2068,#1032);
#837=LINE('',#2069,#1033);
#838=LINE('',#2071,#1034);
#839=LINE('',#2073,#1035);
#840=LINE('',#2074,#1036);
#841=LINE('',#2076,#1037);
#842=LINE('',#2078,#1038);
#843=LINE('',#2079,#1039);
#844=LINE('',#2081,#1040);
#845=LINE('',#2083,#1041);
#846=LINE('',#2084,#1042);
#847=LINE('',#2086,#1043);
#848=LINE('',#2088,#1044);
#849=LINE('',#2089,#1045);
#850=LINE('',#2091,#1046);
#851=LINE('',#2093,#1047);
#852=LINE('',#2094,#1048);
#853=LINE('',#2096,#1049);
#854=LINE('',#2098,#1050);
#855=LINE('',#2099,#1051);
#856=LINE('',#2101,#1052);
#857=LINE('',#2103,#1053);
#858=LINE('',#2105,#1054);
#859=LINE('',#2107,#1055);
#860=LINE('',#2109,#1056);
#861=LINE('',#2111,#1057);
#862=LINE('',#2113,#1058);
#863=LINE('',#2115,#1059);
#864=LINE('',#2117,#1060);
#865=LINE('',#2119,#1061);
#866=LINE('',#2121,#1062);
#867=LINE('',#2123,#1063);
#868=LINE('',#2125,#1064);
#869=LINE('',#2139,#1065);
#870=LINE('',#2141,#1066);
#871=LINE('',#2143,#1067);
#872=LINE('',#2145,#1068);
#873=LINE('',#2147,#1069);
#874=LINE('',#2148,#1070);
#875=LINE('',#2150,#1071);
#876=LINE('',#2152,#1072);
#877=LINE('',#2153,#1073);
#878=LINE('',#2155,#1074);
#879=LINE('',#2157,#1075);
#880=LINE('',#2158,#1076);
#881=LINE('',#2160,#1077);
#882=LINE('',#2162,#1078);
#883=LINE('',#2163,#1079);
#884=LINE('',#2165,#1080);
#885=LINE('',#2167,#1081);
#886=LINE('',#2168,#1082);
#887=LINE('',#2170,#1083);
#888=LINE('',#2172,#1084);
#889=LINE('',#2173,#1085);
#890=LINE('',#2175,#1086);
#891=LINE('',#2177,#1087);
#892=LINE('',#2178,#1088);
#893=LINE('',#2180,#1089);
#894=LINE('',#2182,#1090);
#895=LINE('',#2183,#1091);
#896=LINE('',#2185,#1092);
#897=LINE('',#2187,#1093);
#898=LINE('',#2189,#1094);
#899=LINE('',#2191,#1095);
#900=LINE('',#2193,#1096);
#901=LINE('',#2195,#1097);
#902=LINE('',#2196,#1098);
#903=LINE('',#2198,#1099);
#904=LINE('',#2200,#1100);
#905=LINE('',#2202,#1101);
#906=LINE('',#2204,#1102);
#907=LINE('',#2205,#1103);
#908=LINE('',#2207,#1104);
#909=LINE('',#2209,#1105);
#910=LINE('',#2211,#1106);
#911=LINE('',#2213,#1107);
#912=LINE('',#2215,#1108);
#913=LINE('',#2217,#1109);
#914=LINE('',#2219,#1110);
#915=LINE('',#2220,#1111);
#916=LINE('',#2222,#1112);
#917=LINE('',#2224,#1113);
#918=LINE('',#2225,#1114);
#919=LINE('',#2227,#1115);
#920=LINE('',#2229,#1116);
#921=LINE('',#2231,#1117);
#922=LINE('',#2233,#1118);
#923=LINE('',#2235,#1119);
#924=LINE('',#2237,#1120);
#925=LINE('',#2239,#1121);
#926=LINE('',#2241,#1122);
#927=LINE('',#2243,#1123);
#928=LINE('',#2245,#1124);
#929=LINE('',#2247,#1125);
#930=LINE('',#2249,#1126);
#931=LINE('',#2251,#1127);
#932=LINE('',#2253,#1128);
#933=LINE('',#2255,#1129);
#934=LINE('',#2257,#1130);
#935=LINE('',#2259,#1131);
#936=LINE('',#2261,#1132);
#937=LINE('',#2263,#1133);
#938=LINE('',#2265,#1134);
#939=LINE('',#2268,#1135);
#940=LINE('',#2270,#1136);
#941=LINE('',#2272,#1137);
#942=LINE('',#2273,#1138);
#943=LINE('',#2274,#1139);
#944=LINE('',#2276,#1140);
#945=LINE('',#2277,#1141);
#946=LINE('',#2279,#1142);
#947=LINE('',#2282,#1143);
#948=LINE('',#2285,#1144);
#949=LINE('',#2287,#1145);
#950=LINE('',#2290,#1146);
#951=LINE('',#2292,#1147);
#952=LINE('',#2295,#1148);
#953=LINE('',#2297,#1149);
#954=LINE('',#2299,#1150);
#955=LINE('',#2303,#1151);
#956=LINE('',#2305,#1152);
#957=LINE('',#2308,#1153);
#958=LINE('',#2310,#1154);
#959=LINE('',#2313,#1155);
#960=LINE('',#2315,#1156);
#961=LINE('',#2318,#1157);
#962=LINE('',#2320,#1158);
#963=LINE('',#2323,#1159);
#964=LINE('',#2325,#1160);
#965=LINE('',#2328,#1161);
#966=LINE('',#2330,#1162);
#967=LINE('',#2333,#1163);
#968=LINE('',#2335,#1164);
#969=LINE('',#2338,#1165);
#970=VECTOR('',#1571,1.);
#971=VECTOR('',#1572,1.);
#972=VECTOR('',#1573,1.);
#973=VECTOR('',#1574,1.);
#974=VECTOR('',#1577,1.);
#975=VECTOR('',#1578,1.);
#976=VECTOR('',#1579,1.);
#977=VECTOR('',#1580,1.);
#978=VECTOR('',#1583,1.);
#979=VECTOR('',#1584,1.);
#980=VECTOR('',#1585,1.);
#981=VECTOR('',#1586,1.);
#982=VECTOR('',#1589,1.);
#983=VECTOR('',#1590,1.);
#984=VECTOR('',#1591,1.);
#985=VECTOR('',#1592,1.);
#986=VECTOR('',#1595,1.);
#987=VECTOR('',#1596,1.);
#988=VECTOR('',#1597,1.);
#989=VECTOR('',#1598,1.);
#990=VECTOR('',#1601,1.);
#991=VECTOR('',#1602,1.);
#992=VECTOR('',#1603,1.);
#993=VECTOR('',#1604,1.);
#994=VECTOR('',#1607,1.);
#995=VECTOR('',#1608,1.);
#996=VECTOR('',#1609,1.);
#997=VECTOR('',#1610,1.);
#998=VECTOR('',#1613,1.);
#999=VECTOR('',#1614,1.);
#1000=VECTOR('',#1615,1.);
#1001=VECTOR('',#1616,1.);
#1002=VECTOR('',#1619,1.);
#1003=VECTOR('',#1620,1.);
#1004=VECTOR('',#1621,1.);
#1005=VECTOR('',#1622,1.);
#1006=VECTOR('',#1625,1.);
#1007=VECTOR('',#1626,1.);
#1008=VECTOR('',#1627,1.);
#1009=VECTOR('',#1628,1.);
#1010=VECTOR('',#1631,1.);
#1011=VECTOR('',#1632,1.);
#1012=VECTOR('',#1633,1.);
#1013=VECTOR('',#1634,1.);
#1014=VECTOR('',#1637,1.);
#1015=VECTOR('',#1638,1.);
#1016=VECTOR('',#1639,1.);
#1017=VECTOR('',#1640,1.);
#1018=VECTOR('',#1641,1.);
#1019=VECTOR('',#1652,1.);
#1020=VECTOR('',#1653,1.);
#1021=VECTOR('',#1654,1.);
#1022=VECTOR('',#1655,1.);
#1023=VECTOR('',#1656,1.);
#1024=VECTOR('',#1657,1.);
#1025=VECTOR('',#1658,1.);
#1026=VECTOR('',#1659,1.);
#1027=VECTOR('',#1660,1.);
#1028=VECTOR('',#1661,1.);
#1029=VECTOR('',#1662,1.);
#1030=VECTOR('',#1663,1.);
#1031=VECTOR('',#1664,1.);
#1032=VECTOR('',#1665,1.);
#1033=VECTOR('',#1666,1.);
#1034=VECTOR('',#1667,1.);
#1035=VECTOR('',#1668,1.);
#1036=VECTOR('',#1669,1.);
#1037=VECTOR('',#1670,1.);
#1038=VECTOR('',#1671,1.);
#1039=VECTOR('',#1672,1.);
#1040=VECTOR('',#1673,1.);
#1041=VECTOR('',#1674,1.);
#1042=VECTOR('',#1675,1.);
#1043=VECTOR('',#1676,1.);
#1044=VECTOR('',#1677,1.);
#1045=VECTOR('',#1678,1.);
#1046=VECTOR('',#1679,1.);
#1047=VECTOR('',#1680,1.);
#1048=VECTOR('',#1681,1.);
#1049=VECTOR('',#1682,1.);
#1050=VECTOR('',#1683,1.);
#1051=VECTOR('',#1684,1.);
#1052=VECTOR('',#1685,1.);
#1053=VECTOR('',#1686,1.);
#1054=VECTOR('',#1689,1.);
#1055=VECTOR('',#1690,1.);
#1056=VECTOR('',#1691,1.);
#1057=VECTOR('',#1694,1.);
#1058=VECTOR('',#1695,1.);
#1059=VECTOR('',#1698,1.);
#1060=VECTOR('',#1699,1.);
#1061=VECTOR('',#1702,1.);
#1062=VECTOR('',#1703,1.);
#1063=VECTOR('',#1706,1.);
#1064=VECTOR('',#1707,1.);
#1065=VECTOR('',#1726,1.);
#1066=VECTOR('',#1729,1.);
#1067=VECTOR('',#1730,1.);
#1068=VECTOR('',#1731,1.);
#1069=VECTOR('',#1732,1.);
#1070=VECTOR('',#1733,1.);
#1071=VECTOR('',#1734,1.);
#1072=VECTOR('',#1735,1.);
#1073=VECTOR('',#1736,1.);
#1074=VECTOR('',#1737,1.);
#1075=VECTOR('',#1738,1.);
#1076=VECTOR('',#1739,1.);
#1077=VECTOR('',#1740,1.);
#1078=VECTOR('',#1741,1.);
#1079=VECTOR('',#1742,1.);
#1080=VECTOR('',#1743,1.);
#1081=VECTOR('',#1744,1.);
#1082=VECTOR('',#1745,1.);
#1083=VECTOR('',#1746,1.);
#1084=VECTOR('',#1747,1.);
#1085=VECTOR('',#1748,1.);
#1086=VECTOR('',#1749,1.);
#1087=VECTOR('',#1750,1.);
#1088=VECTOR('',#1751,1.);
#1089=VECTOR('',#1752,1.);
#1090=VECTOR('',#1753,1.);
#1091=VECTOR('',#1754,1.);
#1092=VECTOR('',#1757,1.);
#1093=VECTOR('',#1758,1.);
#1094=VECTOR('',#1759,1.);
#1095=VECTOR('',#1762,1.);
#1096=VECTOR('',#1763,1.);
#1097=VECTOR('',#1764,1.);
#1098=VECTOR('',#1765,1.);
#1099=VECTOR('',#1766,1.);
#1100=VECTOR('',#1767,1.);
#1101=VECTOR('',#1768,1.);
#1102=VECTOR('',#1769,1.);
#1103=VECTOR('',#1770,1.);
#1104=VECTOR('',#1771,1.);
#1105=VECTOR('',#1772,1.);
#1106=VECTOR('',#1775,1.);
#1107=VECTOR('',#1776,1.);
#1108=VECTOR('',#1779,1.);
#1109=VECTOR('',#1780,1.);
#1110=VECTOR('',#1781,1.);
#1111=VECTOR('',#1782,1.);
#1112=VECTOR('',#1783,1.);
#1113=VECTOR('',#1784,1.);
#1114=VECTOR('',#1785,1.);
#1115=VECTOR('',#1786,1.);
#1116=VECTOR('',#1787,1.);
#1117=VECTOR('',#1788,1.);
#1118=VECTOR('',#1791,1.);
#1119=VECTOR('',#1794,1.);
#1120=VECTOR('',#1797,1.);
#1121=VECTOR('',#1800,1.);
#1122=VECTOR('',#1801,1.);
#1123=VECTOR('',#1802,1.);
#1124=VECTOR('',#1803,1.);
#1125=VECTOR('',#1804,1.);
#1126=VECTOR('',#1807,1.);
#1127=VECTOR('',#1808,1.);
#1128=VECTOR('',#1809,1.);
#1129=VECTOR('',#1810,1.);
#1130=VECTOR('',#1811,1.);
#1131=VECTOR('',#1814,1.);
#1132=VECTOR('',#1815,1.);
#1133=VECTOR('',#1816,1.);
#1134=VECTOR('',#1819,1.);
#1135=VECTOR('',#1820,1.);
#1136=VECTOR('',#1821,1.);
#1137=VECTOR('',#1822,1.);
#1138=VECTOR('',#1823,1.);
#1139=VECTOR('',#1824,1.);
#1140=VECTOR('',#1827,1.);
#1141=VECTOR('',#1828,1.);
#1142=VECTOR('',#1829,1.);
#1143=VECTOR('',#1834,1.);
#1144=VECTOR('',#1839,1.);
#1145=VECTOR('',#1842,1.);
#1146=VECTOR('',#1847,1.);
#1147=VECTOR('',#1850,1.);
#1148=VECTOR('',#1855,1.);
#1149=VECTOR('',#1856,1.);
#1150=VECTOR('',#1859,1.);
#1151=VECTOR('',#1866,1.);
#1152=VECTOR('',#1869,1.);
#1153=VECTOR('',#1874,1.);
#1154=VECTOR('',#1877,1.);
#1155=VECTOR('',#1882,1.);
#1156=VECTOR('',#1885,1.);
#1157=VECTOR('',#1890,1.);
#1158=VECTOR('',#1893,1.);
#1159=VECTOR('',#1898,1.);
#1160=VECTOR('',#1901,1.);
#1161=VECTOR('',#1906,1.);
#1162=VECTOR('',#1909,1.);
#1163=VECTOR('',#1914,1.);
#1164=VECTOR('',#1917,1.);
#1165=VECTOR('',#1922,1.);
#1166=EDGE_LOOP('',(#24,#25,#26,#27));
#1167=EDGE_LOOP('',(#28,#29,#30,#31));
#1168=EDGE_LOOP('',(#32,#33,#34,#35));
#1169=EDGE_LOOP('',(#36,#37,#38,#39));
#1170=EDGE_LOOP('',(#40,#41,#42,#43));
#1171=EDGE_LOOP('',(#44,#45,#46,#47));
#1172=EDGE_LOOP('',(#48,#49,#50,#51));
#1173=EDGE_LOOP('',(#52,#53,#54,#55));
#1174=EDGE_LOOP('',(#56,#57,#58,#59));
#1175=EDGE_LOOP('',(#60,#61,#62,#63));
#1176=EDGE_LOOP('',(#64,#65,#66,#67));
#1177=EDGE_LOOP('',(#68,#69,#70,#71,#72,#73));
#1178=EDGE_LOOP('',(#74));
#1179=EDGE_LOOP('',(#75));
#1180=EDGE_LOOP('',(#76));
#1181=EDGE_LOOP('',(#77));
#1182=EDGE_LOOP('',(#78,#79,#80,#81,#82,#83,#84,#85,#86,#87,#88,#89,#90,
#91,#92,#93,#94,#95,#96,#97,#98,#99,#100,#101,#102,#103,#104,#105,#106,
#107,#108,#109,#110,#111,#112,#113,#114,#115,#116,#117,#118,#119,#120,#121,
#122,#123));
#1183=EDGE_LOOP('',(#124,#125,#126,#127));
#1184=EDGE_LOOP('',(#128,#129,#130,#131));
#1185=EDGE_LOOP('',(#132,#133,#134,#135));
#1186=EDGE_LOOP('',(#136,#137,#138,#139));
#1187=EDGE_LOOP('',(#140,#141,#142,#143));
#1188=EDGE_LOOP('',(#144));
#1189=EDGE_LOOP('',(#145));
#1190=EDGE_LOOP('',(#146));
#1191=EDGE_LOOP('',(#147));
#1192=EDGE_LOOP('',(#148));
#1193=EDGE_LOOP('',(#149));
#1194=EDGE_LOOP('',(#150));
#1195=EDGE_LOOP('',(#151));
#1196=EDGE_LOOP('',(#152,#153,#154,#155));
#1197=EDGE_LOOP('',(#156,#157,#158,#159,#160,#161,#162,#163,#164,#165,#166,
#167,#168,#169,#170,#171,#172,#173,#174,#175,#176,#177,#178,#179,#180,#181,
#182,#183,#184,#185,#186,#187,#188,#189,#190,#191,#192,#193,#194,#195,#196,
#197));
#1198=EDGE_LOOP('',(#198));
#1199=EDGE_LOOP('',(#199));
#1200=EDGE_LOOP('',(#200));
#1201=EDGE_LOOP('',(#201));
#1202=EDGE_LOOP('',(#202,#203,#204,#205));
#1203=EDGE_LOOP('',(#206,#207,#208,#209,#210,#211,#212,#213,#214,#215,#216,
#217,#218,#219,#220,#221,#222));
#1204=EDGE_LOOP('',(#223,#224,#225,#226));
#1205=EDGE_LOOP('',(#227,#228,#229,#230,#231,#232,#233,#234,#235,#236,#237,
#238,#239,#240,#241,#242,#243));
#1206=EDGE_LOOP('',(#244,#245,#246,#247));
#1207=EDGE_LOOP('',(#248,#249,#250,#251));
#1208=EDGE_LOOP('',(#252,#253,#254,#255));
#1209=EDGE_LOOP('',(#256,#257,#258,#259,#260,#261));
#1210=EDGE_LOOP('',(#262,#263,#264,#265,#266,#267,#268));
#1211=EDGE_LOOP('',(#269,#270,#271,#272,#273));
#1212=EDGE_LOOP('',(#274,#275,#276,#277,#278,#279,#280,#281));
#1213=EDGE_LOOP('',(#282,#283,#284,#285,#286,#287));
#1214=EDGE_LOOP('',(#288,#289,#290,#291));
#1215=EDGE_LOOP('',(#292,#293,#294,#295));
#1216=EDGE_LOOP('',(#296,#297,#298,#299));
#1217=EDGE_LOOP('',(#300,#301,#302,#303));
#1218=EDGE_LOOP('',(#304,#305,#306,#307));
#1219=EDGE_LOOP('',(#308,#309,#310,#311));
#1220=EDGE_LOOP('',(#312,#313,#314,#315));
#1221=EDGE_LOOP('',(#316,#317,#318,#319));
#1222=EDGE_LOOP('',(#320,#321,#322,#323));
#1223=EDGE_LOOP('',(#324,#325,#326,#327));
#1224=EDGE_LOOP('',(#328,#329,#330,#331));
#1225=EDGE_LOOP('',(#332,#333,#334,#335));
#1226=EDGE_LOOP('',(#336,#337,#338,#339));
#1227=EDGE_LOOP('',(#340,#341,#342,#343));
#1228=EDGE_LOOP('',(#344,#345,#346,#347));
#1229=EDGE_LOOP('',(#348,#349,#350,#351));
#1230=EDGE_LOOP('',(#352,#353,#354,#355));
#1231=EDGE_LOOP('',(#356,#357,#358,#359));
#1232=EDGE_LOOP('',(#360,#361,#362,#363));
#1233=EDGE_LOOP('',(#364,#365,#366,#367));
#1234=EDGE_LOOP('',(#368,#369,#370,#371));
#1235=EDGE_LOOP('',(#372,#373,#374,#375));
#1236=EDGE_LOOP('',(#376,#377,#378,#379));
#1237=EDGE_LOOP('',(#380,#381,#382,#383));
#1238=EDGE_LOOP('',(#384,#385,#386,#387));
#1239=EDGE_LOOP('',(#388,#389,#390,#391));
#1240=EDGE_LOOP('',(#392,#393,#394,#395));
#1241=EDGE_LOOP('',(#396,#397,#398,#399));
#1242=EDGE_LOOP('',(#400,#401,#402,#403));
#1243=EDGE_LOOP('',(#404,#405,#406,#407));
#1244=EDGE_LOOP('',(#408,#409,#410,#411));
#1245=EDGE_LOOP('',(#412,#413,#414,#415));
#1246=EDGE_LOOP('',(#416,#417,#418,#419));
#1247=EDGE_LOOP('',(#420,#421,#422,#423));
#1248=EDGE_LOOP('',(#424,#425,#426,#427));
#1249=EDGE_LOOP('',(#428,#429,#430,#431));
#1250=FACE_BOUND('',#1166,.T.);
#1251=FACE_BOUND('',#1167,.T.);
#1252=FACE_BOUND('',#1168,.T.);
#1253=FACE_BOUND('',#1169,.T.);
#1254=FACE_BOUND('',#1170,.T.);
#1255=FACE_BOUND('',#1171,.T.);
#1256=FACE_BOUND('',#1172,.T.);
#1257=FACE_BOUND('',#1173,.T.);
#1258=FACE_BOUND('',#1174,.T.);
#1259=FACE_BOUND('',#1175,.T.);
#1260=FACE_BOUND('',#1176,.T.);
#1261=FACE_BOUND('',#1177,.T.);
#1262=FACE_BOUND('',#1178,.T.);
#1263=FACE_BOUND('',#1179,.T.);
#1264=FACE_BOUND('',#1180,.T.);
#1265=FACE_BOUND('',#1181,.T.);
#1266=FACE_BOUND('',#1182,.T.);
#1267=FACE_BOUND('',#1183,.T.);
#1268=FACE_BOUND('',#1184,.T.);
#1269=FACE_BOUND('',#1185,.T.);
#1270=FACE_BOUND('',#1186,.T.);
#1271=FACE_BOUND('',#1187,.T.);
#1272=FACE_BOUND('',#1188,.T.);
#1273=FACE_BOUND('',#1189,.T.);
#1274=FACE_BOUND('',#1190,.T.);
#1275=FACE_BOUND('',#1191,.T.);
#1276=FACE_BOUND('',#1192,.T.);
#1277=FACE_BOUND('',#1193,.T.);
#1278=FACE_BOUND('',#1194,.T.);
#1279=FACE_BOUND('',#1195,.T.);
#1280=FACE_BOUND('',#1196,.T.);
#1281=FACE_BOUND('',#1197,.T.);
#1282=FACE_BOUND('',#1198,.T.);
#1283=FACE_BOUND('',#1199,.T.);
#1284=FACE_BOUND('',#1200,.T.);
#1285=FACE_BOUND('',#1201,.T.);
#1286=FACE_BOUND('',#1202,.T.);
#1287=FACE_BOUND('',#1203,.T.);
#1288=FACE_BOUND('',#1204,.T.);
#1289=FACE_BOUND('',#1205,.T.);
#1290=FACE_BOUND('',#1206,.T.);
#1291=FACE_BOUND('',#1207,.T.);
#1292=FACE_BOUND('',#1208,.T.);
#1293=FACE_BOUND('',#1209,.T.);
#1294=FACE_BOUND('',#1210,.T.);
#1295=FACE_BOUND('',#1211,.T.);
#1296=FACE_BOUND('',#1212,.T.);
#1297=FACE_BOUND('',#1213,.T.);
#1298=FACE_BOUND('',#1214,.T.);
#1299=FACE_BOUND('',#1215,.T.);
#1300=FACE_BOUND('',#1216,.T.);
#1301=FACE_BOUND('',#1217,.T.);
#1302=FACE_BOUND('',#1218,.T.);
#1303=FACE_BOUND('',#1219,.T.);
#1304=FACE_BOUND('',#1220,.T.);
#1305=FACE_BOUND('',#1221,.T.);
#1306=FACE_BOUND('',#1222,.T.);
#1307=FACE_BOUND('',#1223,.T.);
#1308=FACE_BOUND('',#1224,.T.);
#1309=FACE_BOUND('',#1225,.T.);
#1310=FACE_BOUND('',#1226,.T.);
#1311=FACE_BOUND('',#1227,.T.);
#1312=FACE_BOUND('',#1228,.T.);
#1313=FACE_BOUND('',#1229,.T.);
#1314=FACE_BOUND('',#1230,.T.);
#1315=FACE_BOUND('',#1231,.T.);
#1316=FACE_BOUND('',#1232,.T.);
#1317=FACE_BOUND('',#1233,.T.);
#1318=FACE_BOUND('',#1234,.T.);
#1319=FACE_BOUND('',#1235,.T.);
#1320=FACE_BOUND('',#1236,.T.);
#1321=FACE_BOUND('',#1237,.T.);
#1322=FACE_BOUND('',#1238,.T.);
#1323=FACE_BOUND('',#1239,.T.);
#1324=FACE_BOUND('',#1240,.T.);
#1325=FACE_BOUND('',#1241,.T.);
#1326=FACE_BOUND('',#1242,.T.);
#1327=FACE_BOUND('',#1243,.T.);
#1328=FACE_BOUND('',#1244,.T.);
#1329=FACE_BOUND('',#1245,.T.);
#1330=FACE_BOUND('',#1246,.T.);
#1331=FACE_BOUND('',#1247,.T.);
#1332=FACE_BOUND('',#1248,.T.);
#1333=FACE_BOUND('',#1249,.T.);
#1334=PLANE('',#1487);
#1335=PLANE('',#1488);
#1336=PLANE('',#1489);
#1337=PLANE('',#1490);
#1338=PLANE('',#1491);
#1339=PLANE('',#1492);
#1340=PLANE('',#1493);
#1341=PLANE('',#1494);
#1342=PLANE('',#1495);
#1343=PLANE('',#1496);
#1344=PLANE('',#1497);
#1345=PLANE('',#1498);
#1346=PLANE('',#1499);
#1347=PLANE('',#1504);
#1348=PLANE('',#1505);
#1349=PLANE('',#1506);
#1350=PLANE('',#1507);
#1351=PLANE('',#1508);
#1352=PLANE('',#1517);
#1353=PLANE('',#1518);
#1354=PLANE('',#1519);
#1355=PLANE('',#1520);
#1356=PLANE('',#1521);
#1357=PLANE('',#1522);
#1358=PLANE('',#1523);
#1359=PLANE('',#1524);
#1360=PLANE('',#1525);
#1361=PLANE('',#1526);
#1362=PLANE('',#1527);
#1363=PLANE('',#1528);
#1364=PLANE('',#1529);
#1365=PLANE('',#1530);
#1366=PLANE('',#1531);
#1367=PLANE('',#1532);
#1368=PLANE('',#1533);
#1369=PLANE('',#1534);
#1370=PLANE('',#1535);
#1371=PLANE('',#1536);
#1372=PLANE('',#1537);
#1373=PLANE('',#1538);
#1374=PLANE('',#1539);
#1375=PLANE('',#1540);
#1376=PLANE('',#1541);
#1377=PLANE('',#1542);
#1378=PLANE('',#1543);
#1379=PLANE('',#1544);
#1380=PLANE('',#1545);
#1381=PLANE('',#1546);
#1382=PLANE('',#1547);
#1383=PLANE('',#1548);
#1384=PLANE('',#1549);
#1385=PLANE('',#1550);
#1386=PLANE('',#1551);
#1387=PLANE('',#1552);
#1388=PLANE('',#1553);
#1389=PLANE('',#1554);
#1390=PLANE('',#1555);
#1391=PLANE('',#1556);
#1392=PLANE('',#1557);
#1393=PLANE('',#1558);
#1394=PLANE('',#1559);
#1395=PLANE('',#1560);
#1396=PLANE('',#1561);
#1397=PLANE('',#1562);
#1398=PLANE('',#1563);
#1399=PLANE('',#1564);
#1400=PLANE('',#1565);
#1401=PLANE('',#1566);
#1402=ADVANCED_FACE('',(#1250),#1334,.T.);
#1403=ADVANCED_FACE('',(#1251),#1335,.F.);
#1404=ADVANCED_FACE('',(#1252),#1336,.F.);
#1405=ADVANCED_FACE('',(#1253),#1337,.F.);
#1406=ADVANCED_FACE('',(#1254),#1338,.F.);
#1407=ADVANCED_FACE('',(#1255),#1339,.F.);
#1408=ADVANCED_FACE('',(#1256),#1340,.F.);
#1409=ADVANCED_FACE('',(#1257),#1341,.F.);
#1410=ADVANCED_FACE('',(#1258),#1342,.F.);
#1411=ADVANCED_FACE('',(#1259),#1343,.T.);
#1412=ADVANCED_FACE('',(#1260),#1344,.T.);
#1413=ADVANCED_FACE('',(#1261),#1345,.T.);
#1414=ADVANCED_FACE('',(#1262,#1263,#1264,#1265,#1266),#1346,.F.);
#1415=ADVANCED_FACE('',(#1267),#1347,.F.);
#1416=ADVANCED_FACE('',(#1268),#1348,.F.);
#1417=ADVANCED_FACE('',(#1269),#1349,.F.);
#1418=ADVANCED_FACE('',(#1270),#1350,.F.);
#1419=ADVANCED_FACE('',(#1271),#1351,.T.);
#1420=ADVANCED_FACE('',(#1272,#1273),#12,.F.);
#1421=ADVANCED_FACE('',(#1274,#1275),#13,.F.);
#1422=ADVANCED_FACE('',(#1276,#1277),#14,.F.);
#1423=ADVANCED_FACE('',(#1278,#1279),#15,.F.);
#1424=ADVANCED_FACE('',(#1280),#1352,.F.);
#1425=ADVANCED_FACE('',(#1281,#1282,#1283,#1284,#1285),#1353,.T.);
#1426=ADVANCED_FACE('',(#1286),#1354,.F.);
#1427=ADVANCED_FACE('',(#1287),#1355,.T.);
#1428=ADVANCED_FACE('',(#1288),#1356,.F.);
#1429=ADVANCED_FACE('',(#1289),#1357,.F.);
#1430=ADVANCED_FACE('',(#1290),#1358,.T.);
#1431=ADVANCED_FACE('',(#1291),#1359,.T.);
#1432=ADVANCED_FACE('',(#1292),#1360,.F.);
#1433=ADVANCED_FACE('',(#1293),#1361,.F.);
#1434=ADVANCED_FACE('',(#1294),#1362,.T.);
#1435=ADVANCED_FACE('',(#1295),#1363,.F.);
#1436=ADVANCED_FACE('',(#1296),#1364,.T.);
#1437=ADVANCED_FACE('',(#1297),#1365,.T.);
#1438=ADVANCED_FACE('',(#1298),#1366,.F.);
#1439=ADVANCED_FACE('',(#1299),#1367,.F.);
#1440=ADVANCED_FACE('',(#1300),#1368,.T.);
#1441=ADVANCED_FACE('',(#1301),#1369,.T.);
#1442=ADVANCED_FACE('',(#1302),#1370,.F.);
#1443=ADVANCED_FACE('',(#1303),#1371,.T.);
#1444=ADVANCED_FACE('',(#1304),#1372,.F.);
#1445=ADVANCED_FACE('',(#1305),#1373,.T.);
#1446=ADVANCED_FACE('',(#1306),#1374,.T.);
#1447=ADVANCED_FACE('',(#1307),#1375,.F.);
#1448=ADVANCED_FACE('',(#1308),#1376,.F.);
#1449=ADVANCED_FACE('',(#1309),#1377,.T.);
#1450=ADVANCED_FACE('',(#1310),#1378,.T.);
#1451=ADVANCED_FACE('',(#1311),#1379,.F.);
#1452=ADVANCED_FACE('',(#1312),#1380,.T.);
#1453=ADVANCED_FACE('',(#1313),#1381,.F.);
#1454=ADVANCED_FACE('',(#1314),#1382,.F.);
#1455=ADVANCED_FACE('',(#1315),#1383,.T.);
#1456=ADVANCED_FACE('',(#1316),#1384,.F.);
#1457=ADVANCED_FACE('',(#1317),#1385,.F.);
#1458=ADVANCED_FACE('',(#1318),#1386,.T.);
#1459=ADVANCED_FACE('',(#1319),#1387,.F.);
#1460=ADVANCED_FACE('',(#1320),#1388,.F.);
#1461=ADVANCED_FACE('',(#1321),#1389,.T.);
#1462=ADVANCED_FACE('',(#1322),#1390,.F.);
#1463=ADVANCED_FACE('',(#1323),#1391,.F.);
#1464=ADVANCED_FACE('',(#1324),#1392,.T.);
#1465=ADVANCED_FACE('',(#1325),#1393,.F.);
#1466=ADVANCED_FACE('',(#1326),#1394,.F.);
#1467=ADVANCED_FACE('',(#1327),#1395,.T.);
#1468=ADVANCED_FACE('',(#1328),#1396,.F.);
#1469=ADVANCED_FACE('',(#1329),#1397,.F.);
#1470=ADVANCED_FACE('',(#1330),#1398,.T.);
#1471=ADVANCED_FACE('',(#1331),#1399,.F.);
#1472=ADVANCED_FACE('',(#1332),#1400,.F.);
#1473=ADVANCED_FACE('',(#1333),#1401,.F.);
#1474=CLOSED_SHELL('',(#1402,#1403,#1404,#1405,#1406,#1407,#1408,#1409,
#1410,#1411,#1412,#1413,#1414,#1415,#1416,#1417,#1418,#1419,#1420,#1421,
#1422,#1423,#1424,#1425,#1426,#1427,#1428,#1429,#1430,#1431,#1432,#1433,
#1434,#1435,#1436,#1437,#1438,#1439,#1440,#1441,#1442,#1443,#1444,#1445,
#1446,#1447,#1448,#1449,#1450,#1451,#1452,#1453,#1454,#1455,#1456,#1457,
#1458,#1459,#1460,#1461,#1462,#1463,#1464,#1465,#1466,#1467,#1468,#1469,
#1470,#1471,#1472,#1473));
#1475=STYLED_ITEM('',(#1476),#1483);
#1476=PRESENTATION_STYLE_ASSIGNMENT((#1477));
#1477=SURFACE_STYLE_USAGE(.BOTH.,#1478);
#1478=SURFACE_SIDE_STYLE('',(#1479));
#1479=SURFACE_STYLE_FILL_AREA(#1480);
#1480=FILL_AREA_STYLE('',(#1481));
#1481=FILL_AREA_STYLE_COLOUR('',#1482);
#1482=COLOUR_RGB('',0.623529411764706,0.666666666666667,0.701960784313725);
#1483=MANIFOLD_SOLID_BREP('Part 1',#1474);
#1484=SHAPE_DEFINITION_REPRESENTATION(#2346,#1485);
#1485=SHAPE_REPRESENTATION('Part 1',(#1486),#2341);
#1486=AXIS2_PLACEMENT_3D('',#1925,#1567,#1568);
#1487=AXIS2_PLACEMENT_3D('',#1926,#1569,#1570);
#1488=AXIS2_PLACEMENT_3D('',#1935,#1575,#1576);
#1489=AXIS2_PLACEMENT_3D('',#1944,#1581,#1582);
#1490=AXIS2_PLACEMENT_3D('',#1953,#1587,#1588);
#1491=AXIS2_PLACEMENT_3D('',#1962,#1593,#1594);
#1492=AXIS2_PLACEMENT_3D('',#1971,#1599,#1600);
#1493=AXIS2_PLACEMENT_3D('',#1980,#1605,#1606);
#1494=AXIS2_PLACEMENT_3D('',#1989,#1611,#1612);
#1495=AXIS2_PLACEMENT_3D('',#1998,#1617,#1618);
#1496=AXIS2_PLACEMENT_3D('',#2007,#1623,#1624);
#1497=AXIS2_PLACEMENT_3D('',#2016,#1629,#1630);
#1498=AXIS2_PLACEMENT_3D('',#2025,#1635,#1636);
#1499=AXIS2_PLACEMENT_3D('',#2035,#1642,#1643);
#1500=AXIS2_PLACEMENT_3D('',#2036,#1644,#1645);
#1501=AXIS2_PLACEMENT_3D('',#2038,#1646,#1647);
#1502=AXIS2_PLACEMENT_3D('',#2040,#1648,#1649);
#1503=AXIS2_PLACEMENT_3D('',#2042,#1650,#1651);
#1504=AXIS2_PLACEMENT_3D('',#2104,#1687,#1688);
#1505=AXIS2_PLACEMENT_3D('',#2110,#1692,#1693);
#1506=AXIS2_PLACEMENT_3D('',#2114,#1696,#1697);
#1507=AXIS2_PLACEMENT_3D('',#2118,#1700,#1701);
#1508=AXIS2_PLACEMENT_3D('',#2122,#1704,#1705);
#1509=AXIS2_PLACEMENT_3D('',#2126,#1708,#1709);
#1510=AXIS2_PLACEMENT_3D('',#2127,#1710,#1711);
#1511=AXIS2_PLACEMENT_3D('',#2129,#1712,#1713);
#1512=AXIS2_PLACEMENT_3D('',#2130,#1714,#1715);
#1513=AXIS2_PLACEMENT_3D('',#2132,#1716,#1717);
#1514=AXIS2_PLACEMENT_3D('',#2133,#1718,#1719);
#1515=AXIS2_PLACEMENT_3D('',#2135,#1720,#1721);
#1516=AXIS2_PLACEMENT_3D('',#2136,#1722,#1723);
#1517=AXIS2_PLACEMENT_3D('',#2138,#1724,#1725);
#1518=AXIS2_PLACEMENT_3D('',#2140,#1727,#1728);
#1519=AXIS2_PLACEMENT_3D('',#2184,#1755,#1756);
#1520=AXIS2_PLACEMENT_3D('',#2190,#1760,#1761);
#1521=AXIS2_PLACEMENT_3D('',#2210,#1773,#1774);
#1522=AXIS2_PLACEMENT_3D('',#2214,#1777,#1778);
#1523=AXIS2_PLACEMENT_3D('',#2232,#1789,#1790);
#1524=AXIS2_PLACEMENT_3D('',#2234,#1792,#1793);
#1525=AXIS2_PLACEMENT_3D('',#2236,#1795,#1796);
#1526=AXIS2_PLACEMENT_3D('',#2238,#1798,#1799);
#1527=AXIS2_PLACEMENT_3D('',#2248,#1805,#1806);
#1528=AXIS2_PLACEMENT_3D('',#2258,#1812,#1813);
#1529=AXIS2_PLACEMENT_3D('',#2264,#1817,#1818);
#1530=AXIS2_PLACEMENT_3D('',#2275,#1825,#1826);
#1531=AXIS2_PLACEMENT_3D('',#2280,#1830,#1831);
#1532=AXIS2_PLACEMENT_3D('',#2281,#1832,#1833);
#1533=AXIS2_PLACEMENT_3D('',#2283,#1835,#1836);
#1534=AXIS2_PLACEMENT_3D('',#2284,#1837,#1838);
#1535=AXIS2_PLACEMENT_3D('',#2286,#1840,#1841);
#1536=AXIS2_PLACEMENT_3D('',#2288,#1843,#1844);
#1537=AXIS2_PLACEMENT_3D('',#2289,#1845,#1846);
#1538=AXIS2_PLACEMENT_3D('',#2291,#1848,#1849);
#1539=AXIS2_PLACEMENT_3D('',#2293,#1851,#1852);
#1540=AXIS2_PLACEMENT_3D('',#2294,#1853,#1854);
#1541=AXIS2_PLACEMENT_3D('',#2298,#1857,#1858);
#1542=AXIS2_PLACEMENT_3D('',#2300,#1860,#1861);
#1543=AXIS2_PLACEMENT_3D('',#2301,#1862,#1863);
#1544=AXIS2_PLACEMENT_3D('',#2302,#1864,#1865);
#1545=AXIS2_PLACEMENT_3D('',#2304,#1867,#1868);
#1546=AXIS2_PLACEMENT_3D('',#2306,#1870,#1871);
#1547=AXIS2_PLACEMENT_3D('',#2307,#1872,#1873);
#1548=AXIS2_PLACEMENT_3D('',#2309,#1875,#1876);
#1549=AXIS2_PLACEMENT_3D('',#2311,#1878,#1879);
#1550=AXIS2_PLACEMENT_3D('',#2312,#1880,#1881);
#1551=AXIS2_PLACEMENT_3D('',#2314,#1883,#1884);
#1552=AXIS2_PLACEMENT_3D('',#2316,#1886,#1887);
#1553=AXIS2_PLACEMENT_3D('',#2317,#1888,#1889);
#1554=AXIS2_PLACEMENT_3D('',#2319,#1891,#1892);
#1555=AXIS2_PLACEMENT_3D('',#2321,#1894,#1895);
#1556=AXIS2_PLACEMENT_3D('',#2322,#1896,#1897);
#1557=AXIS2_PLACEMENT_3D('',#2324,#1899,#1900);
#1558=AXIS2_PLACEMENT_3D('',#2326,#1902,#1903);
#1559=AXIS2_PLACEMENT_3D('',#2327,#1904,#1905);
#1560=AXIS2_PLACEMENT_3D('',#2329,#1907,#1908);
#1561=AXIS2_PLACEMENT_3D('',#2331,#1910,#1911);
#1562=AXIS2_PLACEMENT_3D('',#2332,#1912,#1913);
#1563=AXIS2_PLACEMENT_3D('',#2334,#1915,#1916);
#1564=AXIS2_PLACEMENT_3D('',#2336,#1918,#1919);
#1565=AXIS2_PLACEMENT_3D('',#2337,#1920,#1921);
#1566=AXIS2_PLACEMENT_3D('',#2339,#1923,#1924);
#1567=DIRECTION('',(0.,0.,1.));
#1568=DIRECTION('',(1.,0.,0.));
#1569=DIRECTION('',(1.,0.,0.));
#1570=DIRECTION('',(0.,0.,-1.));
#1571=DIRECTION('',(0.,0.,-1.));
#1572=DIRECTION('',(0.,-1.,0.));
#1573=DIRECTION('',(0.,0.,-1.));
#1574=DIRECTION('',(0.,1.,0.));
#1575=DIRECTION('',(9.33902275088456E-17,0.,-1.));
#1576=DIRECTION('',(-1.,0.,-9.33902275088456E-17));
#1577=DIRECTION('',(0.,-1.,0.));
#1578=DIRECTION('',(-1.,0.,-9.33902275088456E-17));
#1579=DIRECTION('',(0.,-1.,0.));
#1580=DIRECTION('',(-1.,0.,-9.33902275088456E-17));
#1581=DIRECTION('',(9.33902275088456E-17,0.,-1.));
#1582=DIRECTION('',(-1.,0.,-9.33902275088456E-17));
#1583=DIRECTION('',(0.,-1.,0.));
#1584=DIRECTION('',(-1.,0.,-9.33902275088456E-17));
#1585=DIRECTION('',(0.,-1.,0.));
#1586=DIRECTION('',(-1.,0.,-9.33902275088456E-17));
#1587=DIRECTION('',(9.33902275088456E-17,0.,-1.));
#1588=DIRECTION('',(-1.,0.,-9.33902275088456E-17));
#1589=DIRECTION('',(0.,-1.,0.));
#1590=DIRECTION('',(-1.,0.,-9.33902275088456E-17));
#1591=DIRECTION('',(0.,-1.,0.));
#1592=DIRECTION('',(-1.,0.,-9.33902275088456E-17));
#1593=DIRECTION('',(9.33902275088456E-17,0.,-1.));
#1594=DIRECTION('',(-1.,0.,-9.33902275088456E-17));
#1595=DIRECTION('',(0.,-1.,0.));
#1596=DIRECTION('',(-1.,0.,-9.33902275088456E-17));
#1597=DIRECTION('',(0.,-1.,0.));
#1598=DIRECTION('',(-1.,0.,-9.33902275088456E-17));
#1599=DIRECTION('',(9.33902275088456E-17,0.,-1.));
#1600=DIRECTION('',(-1.,0.,-9.33902275088456E-17));
#1601=DIRECTION('',(0.,-1.,0.));
#1602=DIRECTION('',(-1.,0.,-9.33902275088456E-17));
#1603=DIRECTION('',(0.,-1.,0.));
#1604=DIRECTION('',(-1.,0.,-9.33902275088456E-17));
#1605=DIRECTION('',(9.33902275088456E-17,0.,-1.));
#1606=DIRECTION('',(-1.,0.,-9.33902275088456E-17));
#1607=DIRECTION('',(0.,-1.,0.));
#1608=DIRECTION('',(-1.,0.,-9.33902275088456E-17));
#1609=DIRECTION('',(0.,-1.,0.));
#1610=DIRECTION('',(-1.,0.,-9.33902275088456E-17));
#1611=DIRECTION('',(9.33902275088456E-17,0.,-1.));
#1612=DIRECTION('',(-1.,0.,-9.33902275088456E-17));
#1613=DIRECTION('',(0.,-1.,0.));
#1614=DIRECTION('',(-1.,0.,-9.33902275088456E-17));
#1615=DIRECTION('',(0.,-1.,0.));
#1616=DIRECTION('',(-1.,0.,-9.33902275088456E-17));
#1617=DIRECTION('',(9.33902275088456E-17,0.,-1.));
#1618=DIRECTION('',(-1.,0.,-9.33902275088456E-17));
#1619=DIRECTION('',(0.,-1.,0.));
#1620=DIRECTION('',(-1.,0.,-9.33902275088456E-17));
#1621=DIRECTION('',(0.,1.,0.));
#1622=DIRECTION('',(-1.,0.,-9.33902275088456E-17));
#1623=DIRECTION('',(9.21499854436551E-17,0.,-1.));
#1624=DIRECTION('',(1.,0.,9.21499854436551E-17));
#1625=DIRECTION('',(-1.44560289664734E-16,-1.,-1.33212285883358E-32));
#1626=DIRECTION('',(1.,0.,9.21499854436551E-17));
#1627=DIRECTION('',(-1.44560289664734E-16,-1.,-1.33212285883358E-32));
#1628=DIRECTION('',(1.,0.,9.21499854436551E-17));
#1629=DIRECTION('',(9.21499854436551E-17,0.,-1.));
#1630=DIRECTION('',(1.,0.,9.21499854436551E-17));
#1631=DIRECTION('',(1.,0.,9.21499854436551E-17));
#1632=DIRECTION('',(-1.44560289664734E-16,-1.,-1.33212285883358E-32));
#1633=DIRECTION('',(1.,0.,9.21499854436551E-17));
#1634=DIRECTION('',(-1.44560289664734E-16,-1.,-1.33212285883358E-32));
#1635=DIRECTION('',(9.21499854436551E-17,0.,-1.));
#1636=DIRECTION('',(-1.,0.,-9.21499854436551E-17));
#1637=DIRECTION('',(-1.,0.,-9.21499854436551E-17));
#1638=DIRECTION('',(1.44560289664734E-16,1.,1.33212285883358E-32));
#1639=DIRECTION('',(-1.,0.,-9.21499854436551E-17));
#1640=DIRECTION('',(-1.,0.,-9.21499854436551E-17));
#1641=DIRECTION('',(-1.,0.,-9.21499854436551E-17));
#1642=DIRECTION('',(0.,-1.,0.));
#1643=DIRECTION('',(1.,0.,0.));
#1644=DIRECTION('',(0.,-1.,0.));
#1645=DIRECTION('',(0.,0.,-1.));
#1646=DIRECTION('',(0.,-1.,0.));
#1647=DIRECTION('',(0.,0.,-1.));
#1648=DIRECTION('',(0.,-1.,0.));
#1649=DIRECTION('',(0.,0.,-1.));
#1650=DIRECTION('',(0.,-1.,0.));
#1651=DIRECTION('',(0.,0.,-1.));
#1652=DIRECTION('',(0.,0.,-1.));
#1653=DIRECTION('',(1.,0.,0.));
#1654=DIRECTION('',(-9.21499854436551E-17,0.,1.));
#1655=DIRECTION('',(-1.,0.,-9.21499854436551E-17));
#1656=DIRECTION('',(-9.21499854436551E-17,0.,1.));
#1657=DIRECTION('',(9.21499854436551E-17,0.,-1.));
#1658=DIRECTION('',(1.,0.,9.21499854436551E-17));
#1659=DIRECTION('',(9.21499854436551E-17,0.,-1.));
#1660=DIRECTION('',(-1.,0.,-9.21499854436551E-17));
#1661=DIRECTION('',(0.,0.,-1.));
#1662=DIRECTION('',(1.,0.,2.16840434497101E-16));
#1663=DIRECTION('',(0.,0.,-1.));
#1664=DIRECTION('',(-1.,0.,-9.63735264431559E-17));
#1665=DIRECTION('',(0.,0.,-1.));
#1666=DIRECTION('',(0.,0.,-1.));
#1667=DIRECTION('',(1.,0.,0.));
#1668=DIRECTION('',(0.,0.,-1.));
#1669=DIRECTION('',(0.,0.,-1.));
#1670=DIRECTION('',(1.,0.,0.));
#1671=DIRECTION('',(0.,0.,-1.));
#1672=DIRECTION('',(5.10212787052002E-17,0.,-1.));
#1673=DIRECTION('',(1.,0.,0.));
#1674=DIRECTION('',(0.,0.,-1.));
#1675=DIRECTION('',(1.020425574104E-16,0.,-1.));
#1676=DIRECTION('',(1.,0.,0.));
#1677=DIRECTION('',(0.,0.,-1.));
#1678=DIRECTION('',(0.,0.,-1.));
#1679=DIRECTION('',(1.,0.,0.));
#1680=DIRECTION('',(0.,0.,-1.));
#1681=DIRECTION('',(0.,0.,-1.));
#1682=DIRECTION('',(1.,0.,0.));
#1683=DIRECTION('',(0.,0.,-1.));
#1684=DIRECTION('',(0.,0.,-1.));
#1685=DIRECTION('',(1.,0.,0.));
#1686=DIRECTION('',(0.,0.,-1.));
#1687=DIRECTION('',(9.63735264431559E-17,0.,-1.));
#1688=DIRECTION('',(-1.,0.,-9.63735264431559E-17));
#1689=DIRECTION('',(0.,1.,0.));
#1690=DIRECTION('',(-1.,0.,-9.63735264431559E-17));
#1691=DIRECTION('',(0.,1.,0.));
#1692=DIRECTION('',(1.,0.,0.));
#1693=DIRECTION('',(0.,0.,-1.));
#1694=DIRECTION('',(0.,1.,0.));
#1695=DIRECTION('',(0.,0.,-1.));
#1696=DIRECTION('',(-2.16840434497101E-16,0.,1.));
#1697=DIRECTION('',(1.,0.,2.16840434497101E-16));
#1698=DIRECTION('',(0.,1.,0.));
#1699=DIRECTION('',(1.,0.,2.16840434497101E-16));
#1700=DIRECTION('',(1.,0.,0.));
#1701=DIRECTION('',(0.,0.,-1.));
#1702=DIRECTION('',(0.,1.,0.));
#1703=DIRECTION('',(0.,0.,-1.));
#1704=DIRECTION('',(9.21499854436551E-17,0.,-1.));
#1705=DIRECTION('',(-1.,0.,-9.21499854436551E-17));
#1706=DIRECTION('',(1.44560289664734E-16,1.,1.33212285883358E-32));
#1707=DIRECTION('',(-1.,0.,-9.21499854436551E-17));
#1708=DIRECTION('',(0.,1.,0.));
#1709=DIRECTION('',(0.,0.,1.));
#1710=DIRECTION('',(0.,-1.,0.));
#1711=DIRECTION('',(0.,0.,-1.));
#1712=DIRECTION('',(0.,1.,0.));
#1713=DIRECTION('',(0.,0.,1.));
#1714=DIRECTION('',(0.,-1.,0.));
#1715=DIRECTION('',(0.,0.,-1.));
#1716=DIRECTION('',(0.,1.,0.));
#1717=DIRECTION('',(0.,0.,1.));
#1718=DIRECTION('',(0.,-1.,0.));
#1719=DIRECTION('',(0.,0.,-1.));
#1720=DIRECTION('',(0.,1.,0.));
#1721=DIRECTION('',(0.,0.,1.));
#1722=DIRECTION('',(0.,-1.,0.));
#1723=DIRECTION('',(0.,0.,-1.));
#1724=DIRECTION('',(1.,0.,0.));
#1725=DIRECTION('',(0.,0.,-1.));
#1726=DIRECTION('',(0.,0.,-1.));
#1727=DIRECTION('',(0.,-1.,0.));
#1728=DIRECTION('',(1.,0.,0.));
#1729=DIRECTION('',(0.,0.,-1.));
#1730=DIRECTION('',(0.,0.,-1.));
#1731=DIRECTION('',(1.,0.,0.));
#1732=DIRECTION('',(0.,0.,-1.));
#1733=DIRECTION('',(0.,0.,-1.));
#1734=DIRECTION('',(1.,0.,0.));
#1735=DIRECTION('',(0.,0.,-1.));
#1736=DIRECTION('',(0.,0.,-1.));
#1737=DIRECTION('',(1.,0.,0.));
#1738=DIRECTION('',(0.,0.,-1.));
#1739=DIRECTION('',(0.,0.,-1.));
#1740=DIRECTION('',(1.,0.,0.));
#1741=DIRECTION('',(1.020425574104E-16,0.,-1.));
#1742=DIRECTION('',(0.,0.,-1.));
#1743=DIRECTION('',(1.,0.,0.));
#1744=DIRECTION('',(5.10212787052002E-17,0.,-1.));
#1745=DIRECTION('',(0.,0.,-1.));
#1746=DIRECTION('',(1.,0.,0.));
#1747=DIRECTION('',(0.,0.,-1.));
#1748=DIRECTION('',(0.,0.,-1.));
#1749=DIRECTION('',(1.,0.,0.));
#1750=DIRECTION('',(0.,0.,-1.));
#1751=DIRECTION('',(9.21499854436551E-17,0.,-1.));
#1752=DIRECTION('',(1.,0.,9.21499854436551E-17));
#1753=DIRECTION('',(9.21499854436551E-17,0.,-1.));
#1754=DIRECTION('',(1.,0.,0.));
#1755=DIRECTION('',(9.21499854436551E-17,0.,-1.));
#1756=DIRECTION('',(1.,0.,9.21499854436551E-17));
#1757=DIRECTION('',(-1.44560289664734E-16,-1.,-1.33212285883358E-32));
#1758=DIRECTION('',(-1.44560289664734E-16,-1.,-1.33212285883358E-32));
#1759=DIRECTION('',(1.,0.,9.21499854436551E-17));
#1760=DIRECTION('',(-1.,1.44560289664734E-16,-9.21499854436551E-17));
#1761=DIRECTION('',(-1.44560289664734E-16,-1.,0.));
#1762=DIRECTION('',(-9.21499854436551E-17,0.,1.));
#1763=DIRECTION('',(9.03843412152377E-18,0.581238193719097,0.813733471206735));
#1764=DIRECTION('',(-1.44560289664734E-16,-1.,-1.33212285883358E-32));
#1765=DIRECTION('',(-9.21499854436551E-17,0.,1.));
#1766=DIRECTION('',(-1.44560289664734E-16,-1.,-1.33212285883358E-32));
#1767=DIRECTION('',(-9.21499854436551E-17,0.,1.));
#1768=DIRECTION('',(-1.44560289664734E-16,-1.,-1.33212285883358E-32));
#1769=DIRECTION('',(-9.21499854436551E-17,0.,1.));
#1770=DIRECTION('',(-9.21499854436551E-17,0.,1.));
#1771=DIRECTION('',(-1.44560289664734E-16,-1.,-1.33212285883358E-32));
#1772=DIRECTION('',(-9.21499854436551E-17,0.,1.));
#1773=DIRECTION('',(0.,-1.,0.));
#1774=DIRECTION('',(0.,0.,-1.));
#1775=DIRECTION('',(-9.21499854436551E-17,0.,1.));
#1776=DIRECTION('',(1.,0.,9.21499854436551E-17));
#1777=DIRECTION('',(-1.,1.44560289664734E-16,-9.21499854436551E-17));
#1778=DIRECTION('',(-1.44560289664734E-16,-1.,0.));
#1779=DIRECTION('',(-1.44560289664734E-16,-1.,-1.33212285883358E-32));
#1780=DIRECTION('',(-9.03843412152377E-18,-0.581238193719097,-0.813733471206735));
#1781=DIRECTION('',(-9.21499854436551E-17,0.,1.));
#1782=DIRECTION('',(-9.21499854436551E-17,0.,1.));
#1783=DIRECTION('',(-1.44560289664734E-16,-1.,-1.33212285883358E-32));
#1784=DIRECTION('',(-9.21499854436551E-17,0.,1.));
#1785=DIRECTION('',(-9.21499854436551E-17,0.,1.));
#1786=DIRECTION('',(-1.44560289664734E-16,-1.,-1.33212285883358E-32));
#1787=DIRECTION('',(-9.21499854436551E-17,0.,1.));
#1788=DIRECTION('',(-1.44560289664734E-16,-1.,-1.33212285883358E-32));
#1789=DIRECTION('',(0.,-1.,0.));
#1790=DIRECTION('',(0.,0.,-1.));
#1791=DIRECTION('',(-1.,0.,-9.21499854436551E-17));
#1792=DIRECTION('',(9.21499854436551E-17,0.,-1.));
#1793=DIRECTION('',(1.,0.,9.21499854436551E-17));
#1794=DIRECTION('',(1.,0.,9.21499854436551E-17));
#1795=DIRECTION('',(9.21499854436551E-17,0.,-1.));
#1796=DIRECTION('',(1.,0.,9.21499854436551E-17));
#1797=DIRECTION('',(1.,0.,9.21499854436551E-17));
#1798=DIRECTION('',(0.,1.,0.));
#1799=DIRECTION('',(0.,0.,1.));
#1800=DIRECTION('',(-9.21499854436551E-17,0.,1.));
#1801=DIRECTION('',(-9.21499854436551E-17,0.,1.));
#1802=DIRECTION('',(1.,0.,9.21499854436551E-17));
#1803=DIRECTION('',(-9.21499854436551E-17,0.,1.));
#1804=DIRECTION('',(-1.,0.,-9.21499854436551E-17));
#1805=DIRECTION('',(1.,0.,9.21499854436551E-17));
#1806=DIRECTION('',(9.21499854436551E-17,0.,-1.));
#1807=DIRECTION('',(0.,1.,0.));
#1808=DIRECTION('',(0.,1.,0.));
#1809=DIRECTION('',(-9.21499854436551E-17,0.,1.));
#1810=DIRECTION('',(-9.29316147844717E-17,-1.,-8.56364694964443E-33));
#1811=DIRECTION('',(-9.21499854436551E-17,0.,1.));
#1812=DIRECTION('',(1.,0.,9.21499854436551E-17));
#1813=DIRECTION('',(9.21499854436551E-17,0.,-1.));
#1814=DIRECTION('',(0.,1.,0.));
#1815=DIRECTION('',(-9.21499854436551E-17,0.,1.));
#1816=DIRECTION('',(0.,-1.,0.));
#1817=DIRECTION('',(9.29316147844717E-17,1.,8.56364694964443E-33));
#1818=DIRECTION('',(-1.,9.29316147844717E-17,0.));
#1819=DIRECTION('',(-7.95833539474573E-49,-8.56364694964443E-33,1.));
#1820=DIRECTION('',(-1.,9.29316147844717E-17,-9.21499854436551E-17));
#1821=DIRECTION('',(-9.21499854436551E-17,0.,1.));
#1822=DIRECTION('',(1.,0.,9.21499854436551E-17));
#1823=DIRECTION('',(-1.,9.29316147844717E-17,-9.21499854436551E-17));
#1824=DIRECTION('',(1.,-9.29316147844717E-17,-7.95833539474573E-49));
#1825=DIRECTION('',(9.21499854436551E-17,0.,-1.));
#1826=DIRECTION('',(1.,0.,9.21499854436551E-17));
#1827=DIRECTION('',(0.,-1.,0.));
#1828=DIRECTION('',(-9.29316147844717E-17,-1.,-8.56364694964443E-33));
#1829=DIRECTION('',(-1.,9.29316147844717E-17,-9.21499854436551E-17));
#1830=DIRECTION('',(9.21499854436551E-17,0.,-1.));
#1831=DIRECTION('',(1.,0.,9.21499854436551E-17));
#1832=DIRECTION('',(-1.,0.,-9.21499854436551E-17));
#1833=DIRECTION('',(-9.21499854436551E-17,0.,1.));
#1834=DIRECTION('',(0.,-1.,0.));
#1835=DIRECTION('',(9.21499854436551E-17,0.,-1.));
#1836=DIRECTION('',(1.,0.,9.21499854436551E-17));
#1837=DIRECTION('',(0.,-1.,0.));
#1838=DIRECTION('',(0.,0.,-1.));
#1839=DIRECTION('',(1.,0.,9.21499854436551E-17));
#1840=DIRECTION('',(0.,-1.,0.));
#1841=DIRECTION('',(0.,0.,-1.));
#1842=DIRECTION('',(1.,0.,9.21499854436551E-17));
#1843=DIRECTION('',(9.21499854436551E-17,0.,-1.));
#1844=DIRECTION('',(1.,0.,9.21499854436551E-17));
#1845=DIRECTION('',(0.,-1.,0.));
#1846=DIRECTION('',(0.,0.,-1.));
#1847=DIRECTION('',(1.,0.,9.21499854436551E-17));
#1848=DIRECTION('',(0.,-1.,0.));
#1849=DIRECTION('',(0.,0.,-1.));
#1850=DIRECTION('',(1.,0.,9.21499854436551E-17));
#1851=DIRECTION('',(9.21499854436551E-17,0.,-1.));
#1852=DIRECTION('',(1.,0.,9.21499854436551E-17));
#1853=DIRECTION('',(1.,-9.29316147844717E-17,1.48368246027497E-64));
#1854=DIRECTION('',(9.29316147844717E-17,1.,0.));
#1855=DIRECTION('',(-9.29316147844717E-17,-1.,-8.56364694964443E-33));
#1856=DIRECTION('',(-7.95833539474573E-49,-8.56364694964443E-33,1.));
#1857=DIRECTION('',(0.,8.56364694964443E-33,-1.));
#1858=DIRECTION('',(0.,1.,8.56364694964443E-33));
#1859=DIRECTION('',(1.,-9.29316147844717E-17,-7.95833539474573E-49));
#1860=DIRECTION('',(9.29316147844717E-17,1.,8.56364694964443E-33));
#1861=DIRECTION('',(-1.,9.29316147844717E-17,7.95833539474573E-49));
#1862=DIRECTION('',(-5.35610910905111E-17,-0.813733471206735,0.581238193719097));
#1863=DIRECTION('',(-1.,0.,-9.21499854436551E-17));
#1864=DIRECTION('',(-1.,0.,0.));
#1865=DIRECTION('',(0.,0.,1.));
#1866=DIRECTION('',(0.,-1.,0.));
#1867=DIRECTION('',(-1.,0.,0.));
#1868=DIRECTION('',(0.,0.,1.));
#1869=DIRECTION('',(0.,-1.,0.));
#1870=DIRECTION('',(0.,0.,-1.));
#1871=DIRECTION('',(-1.,0.,0.));
#1872=DIRECTION('',(-1.,0.,0.));
#1873=DIRECTION('',(0.,0.,1.));
#1874=DIRECTION('',(0.,-1.,0.));
#1875=DIRECTION('',(-1.,0.,0.));
#1876=DIRECTION('',(0.,0.,1.));
#1877=DIRECTION('',(0.,-1.,0.));
#1878=DIRECTION('',(0.,0.,-1.));
#1879=DIRECTION('',(-1.,0.,0.));
#1880=DIRECTION('',(-1.,0.,-5.10212787052002E-17));
#1881=DIRECTION('',(-5.10212787052002E-17,0.,1.));
#1882=DIRECTION('',(0.,-1.,0.));
#1883=DIRECTION('',(-1.,0.,0.));
#1884=DIRECTION('',(0.,0.,1.));
#1885=DIRECTION('',(0.,-1.,0.));
#1886=DIRECTION('',(0.,0.,-1.));
#1887=DIRECTION('',(-1.,0.,0.));
#1888=DIRECTION('',(-1.,0.,-1.020425574104E-16));
#1889=DIRECTION('',(-1.020425574104E-16,0.,1.));
#1890=DIRECTION('',(0.,-1.,0.));
#1891=DIRECTION('',(-1.,0.,0.));
#1892=DIRECTION('',(0.,0.,1.));
#1893=DIRECTION('',(0.,-1.,0.));
#1894=DIRECTION('',(0.,0.,-1.));
#1895=DIRECTION('',(-1.,0.,0.));
#1896=DIRECTION('',(-1.,0.,0.));
#1897=DIRECTION('',(0.,0.,1.));
#1898=DIRECTION('',(0.,-1.,0.));
#1899=DIRECTION('',(-1.,0.,0.));
#1900=DIRECTION('',(0.,0.,1.));
#1901=DIRECTION('',(0.,-1.,0.));
#1902=DIRECTION('',(0.,0.,-1.));
#1903=DIRECTION('',(-1.,0.,0.));
#1904=DIRECTION('',(-1.,0.,0.));
#1905=DIRECTION('',(0.,0.,1.));
#1906=DIRECTION('',(0.,-1.,0.));
#1907=DIRECTION('',(-1.,0.,0.));
#1908=DIRECTION('',(0.,0.,1.));
#1909=DIRECTION('',(0.,-1.,0.));
#1910=DIRECTION('',(0.,0.,-1.));
#1911=DIRECTION('',(-1.,0.,0.));
#1912=DIRECTION('',(-1.,0.,0.));
#1913=DIRECTION('',(0.,0.,1.));
#1914=DIRECTION('',(0.,-1.,0.));
#1915=DIRECTION('',(-1.,0.,0.));
#1916=DIRECTION('',(0.,0.,1.));
#1917=DIRECTION('',(0.,-1.,0.));
#1918=DIRECTION('',(0.,0.,-1.));
#1919=DIRECTION('',(-1.,0.,0.));
#1920=DIRECTION('',(-1.,0.,0.));
#1921=DIRECTION('',(0.,0.,1.));
#1922=DIRECTION('',(0.,-1.,0.));
#1923=DIRECTION('',(0.,0.,-1.));
#1924=DIRECTION('',(-1.,0.,0.));
#1925=CARTESIAN_POINT('',(0.,0.,0.));
#1926=CARTESIAN_POINT('',(0.04165,-0.004,-5.20417042793042E-18));
#1927=CARTESIAN_POINT('',(0.04165,0.,-5.20417042793042E-18));
#1928=CARTESIAN_POINT('',(0.04165,0.,0.00425));
#1929=CARTESIAN_POINT('',(0.04165,0.,-0.02125));
#1930=CARTESIAN_POINT('',(0.04165,0.021,0.00425));
#1931=CARTESIAN_POINT('',(0.04165,-0.004,0.00425));
#1932=CARTESIAN_POINT('',(0.04165,-0.004,-5.20417042793042E-18));
#1933=CARTESIAN_POINT('',(0.04165,-0.004,-0.02125));
#1934=CARTESIAN_POINT('',(0.04165,-0.004,-0.02125));
#1935=CARTESIAN_POINT('',(0.0045,-0.004,0.02125));
#1936=CARTESIAN_POINT('',(0.03765,0.021,0.02125));
#1937=CARTESIAN_POINT('',(0.03765,0.,0.02125));
#1938=CARTESIAN_POINT('',(0.03765,-0.004,0.02125));
#1939=CARTESIAN_POINT('',(0.0045,0.,0.02125));
#1940=CARTESIAN_POINT('',(0.03365,0.,0.02125));
#1941=CARTESIAN_POINT('',(0.03365,0.021,0.02125));
#1942=CARTESIAN_POINT('',(0.03365,-0.004,0.02125));
#1943=CARTESIAN_POINT('',(0.0045,-0.004,0.02125));
#1944=CARTESIAN_POINT('',(0.0045,-0.004,0.02125));
#1945=CARTESIAN_POINT('',(0.02965,0.021,0.02125));
#1946=CARTESIAN_POINT('',(0.02965,0.,0.02125));
#1947=CARTESIAN_POINT('',(0.02965,-0.004,0.02125));
#1948=CARTESIAN_POINT('',(0.0045,0.,0.02125));
#1949=CARTESIAN_POINT('',(0.02565,0.,0.02125));
#1950=CARTESIAN_POINT('',(0.02565,0.021,0.02125));
#1951=CARTESIAN_POINT('',(0.02565,-0.004,0.02125));
#1952=CARTESIAN_POINT('',(0.0045,-0.004,0.02125));
#1953=CARTESIAN_POINT('',(0.0045,-0.004,0.02125));
#1954=CARTESIAN_POINT('',(0.02165,0.021,0.02125));
#1955=CARTESIAN_POINT('',(0.02165,0.,0.02125));
#1956=CARTESIAN_POINT('',(0.02165,-0.004,0.02125));
#1957=CARTESIAN_POINT('',(0.0045,0.,0.02125));
#1958=CARTESIAN_POINT('',(0.01765,0.,0.02125));
#1959=CARTESIAN_POINT('',(0.01765,0.021,0.02125));
#1960=CARTESIAN_POINT('',(0.01765,-0.004,0.02125));
#1961=CARTESIAN_POINT('',(0.0045,-0.004,0.02125));
#1962=CARTESIAN_POINT('',(0.0045,-0.004,0.02125));
#1963=CARTESIAN_POINT('',(0.01365,0.021,0.02125));
#1964=CARTESIAN_POINT('',(0.01365,0.,0.02125));
#1965=CARTESIAN_POINT('',(0.01365,-0.004,0.02125));
#1966=CARTESIAN_POINT('',(0.0045,0.,0.02125));
#1967=CARTESIAN_POINT('',(0.00965,0.,0.02125));
#1968=CARTESIAN_POINT('',(0.00965,0.021,0.02125));
#1969=CARTESIAN_POINT('',(0.00965,-0.004,0.02125));
#1970=CARTESIAN_POINT('',(0.0045,-0.004,0.02125));
#1971=CARTESIAN_POINT('',(0.0045,-0.004,0.02125));
#1972=CARTESIAN_POINT('',(0.00565,0.021,0.02125));
#1973=CARTESIAN_POINT('',(0.00565,0.,0.02125));
#1974=CARTESIAN_POINT('',(0.00565,-0.004,0.02125));
#1975=CARTESIAN_POINT('',(0.0045,0.,0.02125));
#1976=CARTESIAN_POINT('',(0.00165,0.,0.02125));
#1977=CARTESIAN_POINT('',(0.00165,0.021,0.02125));
#1978=CARTESIAN_POINT('',(0.00165,-0.004,0.02125));
#1979=CARTESIAN_POINT('',(0.0045,-0.004,0.02125));
#1980=CARTESIAN_POINT('',(0.0045,-0.004,0.02125));
#1981=CARTESIAN_POINT('',(-0.00235,0.021,0.02125));
#1982=CARTESIAN_POINT('',(-0.00235,0.,0.02125));
#1983=CARTESIAN_POINT('',(-0.00235,-0.004,0.02125));
#1984=CARTESIAN_POINT('',(0.0045,0.,0.02125));
#1985=CARTESIAN_POINT('',(-0.00635,0.,0.02125));
#1986=CARTESIAN_POINT('',(-0.00635,0.021,0.02125));
#1987=CARTESIAN_POINT('',(-0.00635,-0.004,0.02125));
#1988=CARTESIAN_POINT('',(0.0045,-0.004,0.02125));
#1989=CARTESIAN_POINT('',(0.0045,-0.004,0.02125));
#1990=CARTESIAN_POINT('',(-0.01035,0.021,0.02125));
#1991=CARTESIAN_POINT('',(-0.01035,0.,0.02125));
#1992=CARTESIAN_POINT('',(-0.01035,-0.004,0.02125));
#1993=CARTESIAN_POINT('',(0.0045,0.,0.02125));
#1994=CARTESIAN_POINT('',(-0.01435,0.,0.02125));
#1995=CARTESIAN_POINT('',(-0.01435,0.021,0.02125));
#1996=CARTESIAN_POINT('',(-0.01435,-0.004,0.02125));
#1997=CARTESIAN_POINT('',(0.0045,-0.004,0.02125));
#1998=CARTESIAN_POINT('',(0.0045,-0.004,0.02125));
#1999=CARTESIAN_POINT('',(-0.01835,0.021,0.02125));
#2000=CARTESIAN_POINT('',(-0.01835,0.,0.02125));
#2001=CARTESIAN_POINT('',(-0.01835,-0.004,0.02125));
#2002=CARTESIAN_POINT('',(0.0045,0.,0.02125));
#2003=CARTESIAN_POINT('',(-0.03265,0.,0.02125));
#2004=CARTESIAN_POINT('',(-0.03265,-0.004,0.02125));
#2005=CARTESIAN_POINT('',(-0.03265,-0.004,0.02125));
#2006=CARTESIAN_POINT('',(0.0045,-0.004,0.02125));
#2007=CARTESIAN_POINT('',(0.004,-0.004,-0.02525));
#2008=CARTESIAN_POINT('',(-0.00765,-0.004,-0.02525));
#2009=CARTESIAN_POINT('',(-0.00765,-0.00825,-0.02525));
#2010=CARTESIAN_POINT('',(-0.00765,-0.01,-0.02525));
#2011=CARTESIAN_POINT('',(-0.007275,-0.00825,-0.02525));
#2012=CARTESIAN_POINT('',(-0.0069,-0.00825,-0.02525));
#2013=CARTESIAN_POINT('',(-0.0069,-0.004,-0.02525));
#2014=CARTESIAN_POINT('',(-0.0069,-0.01,-0.02525));
#2015=CARTESIAN_POINT('',(-0.007275,-0.01,-0.02525));
#2016=CARTESIAN_POINT('',(0.004,-0.004,-0.02525));
#2017=CARTESIAN_POINT('',(-0.007275,-0.007,-0.02525));
#2018=CARTESIAN_POINT('',(-0.00765,-0.007,-0.02525));
#2019=CARTESIAN_POINT('',(-0.0069,-0.007,-0.02525));
#2020=CARTESIAN_POINT('',(-0.00765,-0.004,-0.02525));
#2021=CARTESIAN_POINT('',(-0.00765,0.,-0.02525));
#2022=CARTESIAN_POINT('',(-0.007275,0.,-0.02525));
#2023=CARTESIAN_POINT('',(-0.0069,0.,-0.02525));
#2024=CARTESIAN_POINT('',(-0.0069,-0.004,-0.02525));
#2025=CARTESIAN_POINT('',(0.004,-0.004,-0.02125));
#2026=CARTESIAN_POINT('',(0.004,-0.004,-0.02125));
#2027=CARTESIAN_POINT('',(-0.0069,-0.004,-0.02125));
#2028=CARTESIAN_POINT('',(-0.0069,-0.004,-0.02125));
#2029=CARTESIAN_POINT('',(-0.0069,0.,-0.02125));
#2030=CARTESIAN_POINT('',(0.004,0.,-0.02125));
#2031=CARTESIAN_POINT('',(0.03765,0.,-0.02125));
#2032=CARTESIAN_POINT('',(0.004,0.,-0.02125));
#2033=CARTESIAN_POINT('',(0.04115,0.,-0.02125));
#2034=CARTESIAN_POINT('',(0.004,0.,-0.02125));
#2035=CARTESIAN_POINT('',(0.,0.,-6.93889390390723E-18));
#2036=CARTESIAN_POINT('',(-0.03515,0.,-0.00675));
#2037=CARTESIAN_POINT('',(-0.03515,0.,-0.00825));
#2038=CARTESIAN_POINT('',(-0.02315,0.,-0.00125));
#2039=CARTESIAN_POINT('',(-0.02315,0.,-0.00275));
#2040=CARTESIAN_POINT('',(0.00385,0.,-0.00125));
#2041=CARTESIAN_POINT('',(0.00385,0.,-0.00275));
#2042=CARTESIAN_POINT('',(0.02635,0.,-0.00125));
#2043=CARTESIAN_POINT('',(0.02635,0.,-0.00275));
#2044=CARTESIAN_POINT('',(0.03765,0.,-6.93889390390723E-18));
#2045=CARTESIAN_POINT('',(0.03765,0.,0.00425));
#2046=CARTESIAN_POINT('',(0.,0.,0.00425));
#2047=CARTESIAN_POINT('',(0.04115,0.,-0.02525));
#2048=CARTESIAN_POINT('',(0.04115,0.,-0.01325));
#2049=CARTESIAN_POINT('',(0.004,0.,-0.01325));
#2050=CARTESIAN_POINT('',(0.03765,0.,-0.01325));
#2051=CARTESIAN_POINT('',(0.03765,0.,-0.02525));
#2052=CARTESIAN_POINT('',(-0.0069,0.,-7.57472880346845E-18));
#2053=CARTESIAN_POINT('',(-0.0069,0.,-0.01325));
#2054=CARTESIAN_POINT('',(1.22098730712843E-18,0.,-0.01325));
#2055=CARTESIAN_POINT('',(-0.00765,0.,-0.01325));
#2056=CARTESIAN_POINT('',(-0.00765,0.,-7.64384129255119E-18));
#2057=CARTESIAN_POINT('',(-0.00765,0.,-0.02125));
#2058=CARTESIAN_POINT('',(0.004,0.,-0.02125));
#2059=CARTESIAN_POINT('',(-0.03365,0.,-0.02125));
#2060=CARTESIAN_POINT('',(-0.03365,0.,-0.01775));
#2061=CARTESIAN_POINT('',(-0.03365,0.,-0.01425));
#2062=CARTESIAN_POINT('',(-0.03765,0.,-0.01425));
#2063=CARTESIAN_POINT('',(-0.04165,0.,-0.01425));
#2064=CARTESIAN_POINT('',(-0.04165,0.,-0.0055));
#2065=CARTESIAN_POINT('',(-0.04165,0.,0.00325));
#2066=CARTESIAN_POINT('',(-0.03715,0.,0.00325));
#2067=CARTESIAN_POINT('',(-0.03265,0.,0.00325));
#2068=CARTESIAN_POINT('',(-0.03265,0.,0.01225));
#2069=CARTESIAN_POINT('',(-0.01835,0.,-6.93889390390723E-18));
#2070=CARTESIAN_POINT('',(-0.01835,0.,0.00425));
#2071=CARTESIAN_POINT('',(0.,0.,0.00425));
#2072=CARTESIAN_POINT('',(-0.01435,0.,0.00425));
#2073=CARTESIAN_POINT('',(-0.01435,0.,-6.93889390390723E-18));
#2074=CARTESIAN_POINT('',(-0.01035,0.,-6.93889390390723E-18));
#2075=CARTESIAN_POINT('',(-0.01035,0.,0.00425));
#2076=CARTESIAN_POINT('',(0.,0.,0.00425));
#2077=CARTESIAN_POINT('',(-0.00635,0.,0.00425));
#2078=CARTESIAN_POINT('',(-0.00635,0.,-6.93889390390723E-18));
#2079=CARTESIAN_POINT('',(-0.00235,0.,-7.05879390886445E-18));
#2080=CARTESIAN_POINT('',(-0.00235,0.,0.00425));
#2081=CARTESIAN_POINT('',(0.,0.,0.00425));
#2082=CARTESIAN_POINT('',(0.00165,0.,0.00425));
#2083=CARTESIAN_POINT('',(0.00165,0.,-6.93889390390723E-18));
#2084=CARTESIAN_POINT('',(0.00565,0.,-6.36235345453847E-18));
#2085=CARTESIAN_POINT('',(0.00565,0.,0.00425));
#2086=CARTESIAN_POINT('',(0.,0.,0.00425));
#2087=CARTESIAN_POINT('',(0.00965,0.,0.00425));
#2088=CARTESIAN_POINT('',(0.00965,0.,-6.93889390390723E-18));
#2089=CARTESIAN_POINT('',(0.01365,0.,-6.93889390390723E-18));
#2090=CARTESIAN_POINT('',(0.01365,0.,0.00425));
#2091=CARTESIAN_POINT('',(0.,0.,0.00425));
#2092=CARTESIAN_POINT('',(0.01765,0.,0.00425));
#2093=CARTESIAN_POINT('',(0.01765,0.,-6.93889390390723E-18));
#2094=CARTESIAN_POINT('',(0.02165,0.,-6.93889390390723E-18));
#2095=CARTESIAN_POINT('',(0.02165,0.,0.00425));
#2096=CARTESIAN_POINT('',(0.,0.,0.00425));
#2097=CARTESIAN_POINT('',(0.02565,0.,0.00425));
#2098=CARTESIAN_POINT('',(0.02565,0.,-6.93889390390723E-18));
#2099=CARTESIAN_POINT('',(0.02965,0.,-6.93889390390723E-18));
#2100=CARTESIAN_POINT('',(0.02965,0.,0.00425));
#2101=CARTESIAN_POINT('',(0.,0.,0.00425));
#2102=CARTESIAN_POINT('',(0.03365,0.,0.00425));
#2103=CARTESIAN_POINT('',(0.03365,0.,-6.93889390390723E-18));
#2104=CARTESIAN_POINT('',(-0.03715,-0.004,0.00325));
#2105=CARTESIAN_POINT('',(-0.04165,-0.004,0.00325));
#2106=CARTESIAN_POINT('',(-0.04165,-0.004,0.00325));
#2107=CARTESIAN_POINT('',(-0.03715,-0.004,0.00325));
#2108=CARTESIAN_POINT('',(-0.03265,-0.004,0.00325));
#2109=CARTESIAN_POINT('',(-0.03265,-0.004,0.00325));
#2110=CARTESIAN_POINT('',(-0.04165,-0.004,-0.0055));
#2111=CARTESIAN_POINT('',(-0.04165,-0.004,-0.01425));
#2112=CARTESIAN_POINT('',(-0.04165,-0.004,-0.01425));
#2113=CARTESIAN_POINT('',(-0.04165,-0.004,-0.0055));
#2114=CARTESIAN_POINT('',(-0.03765,-0.004,-0.01425));
#2115=CARTESIAN_POINT('',(-0.03365,-0.004,-0.01425));
#2116=CARTESIAN_POINT('',(-0.03365,-0.004,-0.01425));
#2117=CARTESIAN_POINT('',(-0.03765,-0.004,-0.01425));
#2118=CARTESIAN_POINT('',(-0.03365,-0.004,-0.01775));
#2119=CARTESIAN_POINT('',(-0.03365,-0.004,-0.02125));
#2120=CARTESIAN_POINT('',(-0.03365,-0.004,-0.02125));
#2121=CARTESIAN_POINT('',(-0.03365,-0.004,-0.01775));
#2122=CARTESIAN_POINT('',(0.004,-0.004,-0.02125));
#2123=CARTESIAN_POINT('',(-0.00765,-0.004,-0.02125));
#2124=CARTESIAN_POINT('',(-0.00765,-0.004,-0.02125));
#2125=CARTESIAN_POINT('',(0.004,-0.004,-0.02125));
#2126=CARTESIAN_POINT('',(-0.03515,-0.004,-0.00675));
#2127=CARTESIAN_POINT('',(-0.03515,-0.004,-0.00675));
#2128=CARTESIAN_POINT('',(-0.03515,-0.004,-0.00825));
#2129=CARTESIAN_POINT('',(-0.02315,-0.004,-0.00125));
#2130=CARTESIAN_POINT('',(-0.02315,-0.004,-0.00125));
#2131=CARTESIAN_POINT('',(-0.02315,-0.004,-0.00275));
#2132=CARTESIAN_POINT('',(0.00385,-0.004,-0.00125));
#2133=CARTESIAN_POINT('',(0.00385,-0.004,-0.00125));
#2134=CARTESIAN_POINT('',(0.00385,-0.004,-0.00275));
#2135=CARTESIAN_POINT('',(0.02635,-0.004,-0.00125));
#2136=CARTESIAN_POINT('',(0.02635,-0.004,-0.00125));
#2137=CARTESIAN_POINT('',(0.02635,-0.004,-0.00275));
#2138=CARTESIAN_POINT('',(-0.03265,-0.004,0.01225));
#2139=CARTESIAN_POINT('',(-0.03265,-0.004,0.01225));
#2140=CARTESIAN_POINT('',(0.,-0.004,-6.93889390390723E-18));
#2141=CARTESIAN_POINT('',(0.03765,-0.004,0.01275));
#2142=CARTESIAN_POINT('',(0.03765,-0.004,0.00425));
#2143=CARTESIAN_POINT('',(0.03365,-0.004,0.01275));
#2144=CARTESIAN_POINT('',(0.03365,-0.004,0.00425));
#2145=CARTESIAN_POINT('',(0.03165,-0.004,0.00425));
#2146=CARTESIAN_POINT('',(0.02965,-0.004,0.00425));
#2147=CARTESIAN_POINT('',(0.02965,-0.004,0.01275));
#2148=CARTESIAN_POINT('',(0.02565,-0.004,0.01275));
#2149=CARTESIAN_POINT('',(0.02565,-0.004,0.00425));
#2150=CARTESIAN_POINT('',(0.02365,-0.004,0.00425));
#2151=CARTESIAN_POINT('',(0.02165,-0.004,0.00425));
#2152=CARTESIAN_POINT('',(0.02165,-0.004,0.01275));
#2153=CARTESIAN_POINT('',(0.01765,-0.004,0.01275));
#2154=CARTESIAN_POINT('',(0.01765,-0.004,0.00425));
#2155=CARTESIAN_POINT('',(0.01565,-0.004,0.00425));
#2156=CARTESIAN_POINT('',(0.01365,-0.004,0.00425));
#2157=CARTESIAN_POINT('',(0.01365,-0.004,0.01275));
#2158=CARTESIAN_POINT('',(0.00965,-0.004,0.01275));
#2159=CARTESIAN_POINT('',(0.00965,-0.004,0.00425));
#2160=CARTESIAN_POINT('',(0.00765,-0.004,0.00425));
#2161=CARTESIAN_POINT('',(0.00565,-0.004,0.00425));
#2162=CARTESIAN_POINT('',(0.00565,-0.004,0.01275));
#2163=CARTESIAN_POINT('',(0.00165,-0.004,0.01275));
#2164=CARTESIAN_POINT('',(0.00165,-0.004,0.00425));
#2165=CARTESIAN_POINT('',(-0.000349999999999996,-0.004,0.00425));
#2166=CARTESIAN_POINT('',(-0.00235,-0.004,0.00425));
#2167=CARTESIAN_POINT('',(-0.00235,-0.004,0.01275));
#2168=CARTESIAN_POINT('',(-0.00635,-0.004,0.01275));
#2169=CARTESIAN_POINT('',(-0.00635,-0.004,0.00425));
#2170=CARTESIAN_POINT('',(-0.00835,-0.004,0.00425));
#2171=CARTESIAN_POINT('',(-0.01035,-0.004,0.00425));
#2172=CARTESIAN_POINT('',(-0.01035,-0.004,0.01275));
#2173=CARTESIAN_POINT('',(-0.01435,-0.004,0.01275));
#2174=CARTESIAN_POINT('',(-0.01435,-0.004,0.00425));
#2175=CARTESIAN_POINT('',(-0.01635,-0.004,0.00425));
#2176=CARTESIAN_POINT('',(-0.01835,-0.004,0.00425));
#2177=CARTESIAN_POINT('',(-0.01835,-0.004,0.01275));
#2178=CARTESIAN_POINT('',(-0.00765,-0.004,-7.64384129255119E-18));
#2179=CARTESIAN_POINT('',(-0.00765,-0.004,-0.01325));
#2180=CARTESIAN_POINT('',(1.22098730712843E-18,-0.004,-0.01325));
#2181=CARTESIAN_POINT('',(-0.0069,-0.004,-0.01325));
#2182=CARTESIAN_POINT('',(-0.0069,-0.004,-7.57472880346845E-18));
#2183=CARTESIAN_POINT('',(0.03965,-0.004,0.00425));
#2184=CARTESIAN_POINT('',(0.004,-0.004,-0.01325));
#2185=CARTESIAN_POINT('',(-0.00765,-0.004,-0.01325));
#2186=CARTESIAN_POINT('',(-0.00765,0.002,-0.01325));
#2187=CARTESIAN_POINT('',(-0.0069,-0.004,-0.01325));
#2188=CARTESIAN_POINT('',(-0.0069,0.002,-0.01325));
#2189=CARTESIAN_POINT('',(-0.007275,0.002,-0.01325));
#2190=CARTESIAN_POINT('',(-0.00765,-0.004,-0.02525));
#2191=CARTESIAN_POINT('',(-0.00765,-0.01,-0.02525));
#2192=CARTESIAN_POINT('',(-0.00765,-0.01,-0.02025));
#2193=CARTESIAN_POINT('',(-0.00765,-0.0103378378378378,-0.0207229729729729));
#2194=CARTESIAN_POINT('',(-0.00765,-0.005,-0.01325));
#2195=CARTESIAN_POINT('',(-0.00765,-0.004,-0.01325));
#2196=CARTESIAN_POINT('',(-0.00765,0.002,-0.02525));
#2197=CARTESIAN_POINT('',(-0.00765,0.002,-0.02525));
#2198=CARTESIAN_POINT('',(-0.00765,-0.004,-0.02525));
#2199=CARTESIAN_POINT('',(-0.00765,0.00125,-0.02525));
#2200=CARTESIAN_POINT('',(-0.00765,0.00125,-0.02925));
#2201=CARTESIAN_POINT('',(-0.00765,0.00125,-0.02925));
#2202=CARTESIAN_POINT('',(-0.00765,-0.004,-0.02925));
#2203=CARTESIAN_POINT('',(-0.00765,0.,-0.02925));
#2204=CARTESIAN_POINT('',(-0.00765,0.,-0.02925));
#2205=CARTESIAN_POINT('',(-0.00765,-0.007,-0.02925));
#2206=CARTESIAN_POINT('',(-0.00765,-0.007,-0.02925));
#2207=CARTESIAN_POINT('',(-0.00765,-0.004,-0.02925));
#2208=CARTESIAN_POINT('',(-0.00765,-0.00825,-0.02925));
#2209=CARTESIAN_POINT('',(-0.00765,-0.00825,-0.02925));
#2210=CARTESIAN_POINT('',(-0.007275,0.002,-0.02525));
#2211=CARTESIAN_POINT('',(-0.0069,0.002,-0.02525));
#2212=CARTESIAN_POINT('',(-0.0069,0.002,-0.02525));
#2213=CARTESIAN_POINT('',(-0.007275,0.002,-0.02525));
#2214=CARTESIAN_POINT('',(-0.0069,-0.004,-0.02525));
#2215=CARTESIAN_POINT('',(-0.0069,-0.004,-0.01325));
#2216=CARTESIAN_POINT('',(-0.0069,-0.005,-0.01325));
#2217=CARTESIAN_POINT('',(-0.0069,-0.005,-0.01325));
#2218=CARTESIAN_POINT('',(-0.0069,-0.01,-0.02025));
#2219=CARTESIAN_POINT('',(-0.0069,-0.01,-0.02525));
#2220=CARTESIAN_POINT('',(-0.0069,-0.00825,-0.02925));
#2221=CARTESIAN_POINT('',(-0.0069,-0.00825,-0.02925));
#2222=CARTESIAN_POINT('',(-0.0069,-0.004,-0.02925));
#2223=CARTESIAN_POINT('',(-0.0069,-0.007,-0.02925));
#2224=CARTESIAN_POINT('',(-0.0069,-0.007,-0.02925));
#2225=CARTESIAN_POINT('',(-0.0069,0.,-0.02925));
#2226=CARTESIAN_POINT('',(-0.0069,0.,-0.02925));
#2227=CARTESIAN_POINT('',(-0.0069,-0.004,-0.02925));
#2228=CARTESIAN_POINT('',(-0.0069,0.00125,-0.02925));
#2229=CARTESIAN_POINT('',(-0.0069,0.00125,-0.02925));
#2230=CARTESIAN_POINT('',(-0.0069,0.00125,-0.02525));
#2231=CARTESIAN_POINT('',(-0.0069,-0.004,-0.02525));
#2232=CARTESIAN_POINT('',(-0.007275,-0.01,-0.02525));
#2233=CARTESIAN_POINT('',(-0.00765,-0.01,-0.02025));
#2234=CARTESIAN_POINT('',(0.004,-0.004,-0.02525));
#2235=CARTESIAN_POINT('',(-0.007275,0.00125,-0.02525));
#2236=CARTESIAN_POINT('',(0.004,-0.004,-0.01325));
#2237=CARTESIAN_POINT('',(-0.0069,-0.005,-0.01325));
#2238=CARTESIAN_POINT('',(0.004,0.,-0.02525));
#2239=CARTESIAN_POINT('',(0.04115,0.,-0.02525));
#2240=CARTESIAN_POINT('',(0.04115,0.,-0.02525));
#2241=CARTESIAN_POINT('',(0.03765,0.,-0.02525));
#2242=CARTESIAN_POINT('',(0.03765,0.,-0.02925));
#2243=CARTESIAN_POINT('',(0.03815,0.,-0.02925));
#2244=CARTESIAN_POINT('',(0.03865,0.,-0.02925));
#2245=CARTESIAN_POINT('',(0.03865,0.,-0.02925));
#2246=CARTESIAN_POINT('',(0.03865,0.,-0.02525));
#2247=CARTESIAN_POINT('',(0.004,0.,-0.02525));
#2248=CARTESIAN_POINT('',(0.04115,0.00025,-0.02525));
#2249=CARTESIAN_POINT('',(0.04115,0.00025,-0.01325));
#2250=CARTESIAN_POINT('',(0.04115,0.0005,-0.01325));
#2251=CARTESIAN_POINT('',(0.04115,0.00025,-0.02525));
#2252=CARTESIAN_POINT('',(0.04115,0.0025,-0.02525));
#2253=CARTESIAN_POINT('',(0.04115,0.0025,-0.02525));
#2254=CARTESIAN_POINT('',(0.04115,0.0025,-0.02475));
#2255=CARTESIAN_POINT('',(0.04115,0.0025,-0.02475));
#2256=CARTESIAN_POINT('',(0.04115,0.0005,-0.02475));
#2257=CARTESIAN_POINT('',(0.04115,0.0005,-0.02525));
#2258=CARTESIAN_POINT('',(0.03765,0.00025,-0.02525));
#2259=CARTESIAN_POINT('',(0.03765,0.00025,-0.01325));
#2260=CARTESIAN_POINT('',(0.03765,0.0005,-0.01325));
#2261=CARTESIAN_POINT('',(0.03765,0.0005,-0.02525));
#2262=CARTESIAN_POINT('',(0.03765,0.0005,-0.02925));
#2263=CARTESIAN_POINT('',(0.03765,0.00025,-0.02925));
#2264=CARTESIAN_POINT('',(0.0394,0.0005,-0.02525));
#2265=CARTESIAN_POINT('',(0.04015,0.0005,-0.025));
#2266=CARTESIAN_POINT('',(0.04015,0.0005,-0.02525));
#2267=CARTESIAN_POINT('',(0.04015,0.0005,-0.02475));
#2268=CARTESIAN_POINT('',(0.0394,0.0005,-0.02525));
#2269=CARTESIAN_POINT('',(0.03865,0.0005,-0.02525));
#2270=CARTESIAN_POINT('',(0.03865,0.0005,-0.02925));
#2271=CARTESIAN_POINT('',(0.03865,0.0005,-0.02925));
#2272=CARTESIAN_POINT('',(0.03815,0.0005,-0.02925));
#2273=CARTESIAN_POINT('',(0.0394,0.0005,-0.01325));
#2274=CARTESIAN_POINT('',(0.04065,0.0005,-0.02475));
#2275=CARTESIAN_POINT('',(0.004,-0.004,-0.02525));
#2276=CARTESIAN_POINT('',(0.03865,0.00025,-0.02525));
#2277=CARTESIAN_POINT('',(0.04015,0.0025,-0.02525));
#2278=CARTESIAN_POINT('',(0.04015,0.0025,-0.02525));
#2279=CARTESIAN_POINT('',(0.0394,0.0025,-0.02525));
#2280=CARTESIAN_POINT('',(0.004,-0.004,-0.01325));
#2281=CARTESIAN_POINT('',(0.03865,0.00025,-0.02925));
#2282=CARTESIAN_POINT('',(0.03865,0.00025,-0.02925));
#2283=CARTESIAN_POINT('',(0.0155,-0.004,-0.02925));
#2284=CARTESIAN_POINT('',(-0.007275,0.,-0.02925));
#2285=CARTESIAN_POINT('',(-0.007275,0.,-0.02925));
#2286=CARTESIAN_POINT('',(-0.007275,0.00125,-0.02925));
#2287=CARTESIAN_POINT('',(-0.007275,0.00125,-0.02925));
#2288=CARTESIAN_POINT('',(0.0155,-0.004,-0.02925));
#2289=CARTESIAN_POINT('',(-0.007275,-0.007,-0.02925));
#2290=CARTESIAN_POINT('',(-0.007275,-0.007,-0.02925));
#2291=CARTESIAN_POINT('',(-0.007275,-0.00825,-0.02925));
#2292=CARTESIAN_POINT('',(-0.007275,-0.00825,-0.02925));
#2293=CARTESIAN_POINT('',(0.0155,-0.004,-0.02925));
#2294=CARTESIAN_POINT('',(0.04015,0.0025,-0.025));
#2295=CARTESIAN_POINT('',(0.04015,0.0025,-0.02475));
#2296=CARTESIAN_POINT('',(0.04015,0.0025,-0.02475));
#2297=CARTESIAN_POINT('',(0.04015,0.0025,-0.025));
#2298=CARTESIAN_POINT('',(0.04065,0.0025,-0.02475));
#2299=CARTESIAN_POINT('',(0.04065,0.0025,-0.02475));
#2300=CARTESIAN_POINT('',(0.0394,0.0025,-0.02125));
#2301=CARTESIAN_POINT('',(0.004,-0.005,-0.01325));
#2302=CARTESIAN_POINT('',(-0.01835,0.021,0.01275));
#2303=CARTESIAN_POINT('',(-0.01835,0.021,0.00425));
#2304=CARTESIAN_POINT('',(-0.01435,0.021,0.01275));
#2305=CARTESIAN_POINT('',(-0.01435,0.021,0.00425));
#2306=CARTESIAN_POINT('',(-0.01635,0.021,0.00425));
#2307=CARTESIAN_POINT('',(-0.01035,0.021,0.01275));
#2308=CARTESIAN_POINT('',(-0.01035,0.021,0.00425));
#2309=CARTESIAN_POINT('',(-0.00635,0.021,0.01275));
#2310=CARTESIAN_POINT('',(-0.00635,0.021,0.00425));
#2311=CARTESIAN_POINT('',(-0.00835,0.021,0.00425));
#2312=CARTESIAN_POINT('',(-0.00235,0.021,0.01275));
#2313=CARTESIAN_POINT('',(-0.00235,0.021,0.00425));
#2314=CARTESIAN_POINT('',(0.00165,0.021,0.01275));
#2315=CARTESIAN_POINT('',(0.00165,0.021,0.00425));
#2316=CARTESIAN_POINT('',(-0.000349999999999996,0.021,0.00425));
#2317=CARTESIAN_POINT('',(0.00565,0.021,0.01275));
#2318=CARTESIAN_POINT('',(0.00565,0.021,0.00425));
#2319=CARTESIAN_POINT('',(0.00965,0.021,0.01275));
#2320=CARTESIAN_POINT('',(0.00965,0.021,0.00425));
#2321=CARTESIAN_POINT('',(0.00765,0.021,0.00425));
#2322=CARTESIAN_POINT('',(0.01365,0.021,0.01275));
#2323=CARTESIAN_POINT('',(0.01365,0.021,0.00425));
#2324=CARTESIAN_POINT('',(0.01765,0.021,0.01275));
#2325=CARTESIAN_POINT('',(0.01765,0.021,0.00425));
#2326=CARTESIAN_POINT('',(0.01565,0.021,0.00425));
#2327=CARTESIAN_POINT('',(0.02165,0.021,0.01275));
#2328=CARTESIAN_POINT('',(0.02165,0.021,0.00425));
#2329=CARTESIAN_POINT('',(0.02565,0.021,0.01275));
#2330=CARTESIAN_POINT('',(0.02565,0.021,0.00425));
#2331=CARTESIAN_POINT('',(0.02365,0.021,0.00425));
#2332=CARTESIAN_POINT('',(0.02965,0.021,0.01275));
#2333=CARTESIAN_POINT('',(0.02965,0.021,0.00425));
#2334=CARTESIAN_POINT('',(0.03365,0.021,0.01275));
#2335=CARTESIAN_POINT('',(0.03365,0.021,0.00425));
#2336=CARTESIAN_POINT('',(0.03165,0.021,0.00425));
#2337=CARTESIAN_POINT('',(0.03765,0.021,0.01275));
#2338=CARTESIAN_POINT('',(0.03765,0.021,0.00425));
#2339=CARTESIAN_POINT('',(0.03965,0.021,0.00425));
#2340=MECHANICAL_DESIGN_GEOMETRIC_PRESENTATION_REPRESENTATION('',(#1475),
#2341);
#2341=(
GEOMETRIC_REPRESENTATION_CONTEXT(3)
GLOBAL_UNCERTAINTY_ASSIGNED_CONTEXT((#2342))
GLOBAL_UNIT_ASSIGNED_CONTEXT((#2345,#2344,#2343))
REPRESENTATION_CONTEXT('Part 1','TOP_LEVEL_ASSEMBLY_PART')
);
#2342=UNCERTAINTY_MEASURE_WITH_UNIT(LENGTH_MEASURE(1.E-8),#2345,
'DISTANCE_ACCURACY_VALUE','Maximum Tolerance applied to model');
#2343=(
NAMED_UNIT(*)
SI_UNIT($,.STERADIAN.)
SOLID_ANGLE_UNIT()
);
#2344=(
NAMED_UNIT(*)
PLANE_ANGLE_UNIT()
SI_UNIT($,.RADIAN.)
);
#2345=(
LENGTH_UNIT()
NAMED_UNIT(*)
SI_UNIT($,.METRE.)
);
#2346=PRODUCT_DEFINITION_SHAPE('','',#2347);
#2347=PRODUCT_DEFINITION('','',#2349,#2348);
#2348=PRODUCT_DEFINITION_CONTEXT('',#2355,'design');
#2349=PRODUCT_DEFINITION_FORMATION_WITH_SPECIFIED_SOURCE('','',#2351,
 .NOT_KNOWN.);
#2350=PRODUCT_RELATED_PRODUCT_CATEGORY('','',(#2351));
#2351=PRODUCT('Part 1','Part 1','Part 1',(#2353));
#2352=PRODUCT_CATEGORY('','');
#2353=PRODUCT_CONTEXT('',#2355,'mechanical');
#2354=APPLICATION_PROTOCOL_DEFINITION('international standard',
'ap242_managed_model_based_3d_engineering',2020,#2355);
#2355=APPLICATION_CONTEXT('managed model based 3d engineering');
ENDSEC;
END-ISO-10303-21;
